<mxfile host="app.diagrams.net" modified="2023-11-27T17:15:10.521Z" agent="Mozilla/5.0 (Windows NT 10.0; Win64; x64) AppleWebKit/537.36 (KHTML, like Gecko) Chrome/119.0.0.0 Safari/537.36" etag="oWwQoKOhMby1XyOkqzfs" version="21.3.2" pages="2">
  <diagram name="Page-1" id="nuK9aEFY29QmVVgaC0KL">
    <mxGraphModel dx="1194" dy="770" grid="1" gridSize="10" guides="1" tooltips="1" connect="1" arrows="1" fold="1" page="1" pageScale="1" pageWidth="827" pageHeight="1169" math="0" shadow="0">
      <root>
        <mxCell id="0" />
        <mxCell id="1" parent="0" />
        <mxCell id="sfbl0dZxAEL_RyN4LRYT-1" value="" style="outlineConnect=0;dashed=0;verticalLabelPosition=bottom;verticalAlign=top;align=center;html=1;shape=mxgraph.aws3.router;fillColor=#F58534;gradientColor=none;" vertex="1" parent="1">
          <mxGeometry x="379" y="70" width="69" height="72" as="geometry" />
        </mxCell>
        <mxCell id="sfbl0dZxAEL_RyN4LRYT-3" value="" style="outlineConnect=0;dashed=0;verticalLabelPosition=bottom;verticalAlign=top;align=center;html=1;shape=mxgraph.aws3.router;fillColor=#F58534;gradientColor=none;" vertex="1" parent="1">
          <mxGeometry x="120" y="390" width="69" height="72" as="geometry" />
        </mxCell>
        <mxCell id="sfbl0dZxAEL_RyN4LRYT-4" value="" style="outlineConnect=0;dashed=0;verticalLabelPosition=bottom;verticalAlign=top;align=center;html=1;shape=mxgraph.aws3.router;fillColor=#F58534;gradientColor=none;" vertex="1" parent="1">
          <mxGeometry x="240" y="570" width="69" height="72" as="geometry" />
        </mxCell>
        <mxCell id="sfbl0dZxAEL_RyN4LRYT-5" value="" style="outlineConnect=0;dashed=0;verticalLabelPosition=bottom;verticalAlign=top;align=center;html=1;shape=mxgraph.aws3.router;fillColor=#F58534;gradientColor=none;" vertex="1" parent="1">
          <mxGeometry x="639" y="160" width="69" height="72" as="geometry" />
        </mxCell>
        <mxCell id="sfbl0dZxAEL_RyN4LRYT-6" value="" style="outlineConnect=0;dashed=0;verticalLabelPosition=bottom;verticalAlign=top;align=center;html=1;shape=mxgraph.aws3.router;fillColor=#F58534;gradientColor=none;" vertex="1" parent="1">
          <mxGeometry x="639" y="390" width="69" height="72" as="geometry" />
        </mxCell>
        <mxCell id="sfbl0dZxAEL_RyN4LRYT-7" value="" style="outlineConnect=0;dashed=0;verticalLabelPosition=bottom;verticalAlign=top;align=center;html=1;shape=mxgraph.aws3.router;fillColor=#F58534;gradientColor=none;" vertex="1" parent="1">
          <mxGeometry x="510" y="570" width="69" height="72" as="geometry" />
        </mxCell>
        <mxCell id="sfbl0dZxAEL_RyN4LRYT-8" value="" style="outlineConnect=0;dashed=0;verticalLabelPosition=bottom;verticalAlign=top;align=center;html=1;shape=mxgraph.aws3.router;fillColor=#F58534;gradientColor=none;" vertex="1" parent="1">
          <mxGeometry x="120" y="160" width="69" height="72" as="geometry" />
        </mxCell>
        <mxCell id="sfbl0dZxAEL_RyN4LRYT-9" value="" style="endArrow=none;html=1;rounded=0;entryX=0.855;entryY=0.145;entryDx=0;entryDy=0;entryPerimeter=0;exitX=0.5;exitY=0;exitDx=0;exitDy=0;exitPerimeter=0;" edge="1" parent="1" source="sfbl0dZxAEL_RyN4LRYT-5" target="sfbl0dZxAEL_RyN4LRYT-1">
          <mxGeometry width="50" height="50" relative="1" as="geometry">
            <mxPoint x="390" y="420" as="sourcePoint" />
            <mxPoint x="440" y="370" as="targetPoint" />
          </mxGeometry>
        </mxCell>
        <mxCell id="sfbl0dZxAEL_RyN4LRYT-51" value="1" style="edgeLabel;html=1;align=center;verticalAlign=middle;resizable=0;points=[];" vertex="1" connectable="0" parent="sfbl0dZxAEL_RyN4LRYT-9">
          <mxGeometry x="0.8789" y="1" relative="1" as="geometry">
            <mxPoint x="1" as="offset" />
          </mxGeometry>
        </mxCell>
        <mxCell id="sfbl0dZxAEL_RyN4LRYT-52" value="1" style="edgeLabel;html=1;align=center;verticalAlign=middle;resizable=0;points=[];" vertex="1" connectable="0" parent="sfbl0dZxAEL_RyN4LRYT-9">
          <mxGeometry x="-0.8868" y="1" relative="1" as="geometry">
            <mxPoint as="offset" />
          </mxGeometry>
        </mxCell>
        <mxCell id="sfbl0dZxAEL_RyN4LRYT-10" value="" style="endArrow=none;html=1;rounded=0;exitX=1;exitY=0.5;exitDx=0;exitDy=0;exitPerimeter=0;entryX=1;entryY=0.5;entryDx=0;entryDy=0;entryPerimeter=0;" edge="1" parent="1" source="sfbl0dZxAEL_RyN4LRYT-5" target="sfbl0dZxAEL_RyN4LRYT-6">
          <mxGeometry width="50" height="50" relative="1" as="geometry">
            <mxPoint x="649" y="192" as="sourcePoint" />
            <mxPoint x="458" y="116" as="targetPoint" />
          </mxGeometry>
        </mxCell>
        <mxCell id="sfbl0dZxAEL_RyN4LRYT-53" value="2" style="edgeLabel;html=1;align=center;verticalAlign=middle;resizable=0;points=[];" vertex="1" connectable="0" parent="sfbl0dZxAEL_RyN4LRYT-10">
          <mxGeometry x="-0.8174" y="-2" relative="1" as="geometry">
            <mxPoint as="offset" />
          </mxGeometry>
        </mxCell>
        <mxCell id="sfbl0dZxAEL_RyN4LRYT-54" value="1" style="edgeLabel;html=1;align=center;verticalAlign=middle;resizable=0;points=[];" vertex="1" connectable="0" parent="sfbl0dZxAEL_RyN4LRYT-10">
          <mxGeometry x="0.7826" y="-1" relative="1" as="geometry">
            <mxPoint as="offset" />
          </mxGeometry>
        </mxCell>
        <mxCell id="sfbl0dZxAEL_RyN4LRYT-11" value="" style="endArrow=none;html=1;rounded=0;entryX=0.855;entryY=0.855;entryDx=0;entryDy=0;entryPerimeter=0;exitX=0.855;exitY=0.855;exitDx=0;exitDy=0;exitPerimeter=0;" edge="1" parent="1" source="sfbl0dZxAEL_RyN4LRYT-6" target="sfbl0dZxAEL_RyN4LRYT-7">
          <mxGeometry width="50" height="50" relative="1" as="geometry">
            <mxPoint x="659" y="202" as="sourcePoint" />
            <mxPoint x="468" y="126" as="targetPoint" />
          </mxGeometry>
        </mxCell>
        <mxCell id="sfbl0dZxAEL_RyN4LRYT-55" value="2" style="edgeLabel;html=1;align=center;verticalAlign=middle;resizable=0;points=[];" vertex="1" connectable="0" parent="sfbl0dZxAEL_RyN4LRYT-11">
          <mxGeometry x="-0.8572" y="3" relative="1" as="geometry">
            <mxPoint as="offset" />
          </mxGeometry>
        </mxCell>
        <mxCell id="sfbl0dZxAEL_RyN4LRYT-56" value="1" style="edgeLabel;html=1;align=center;verticalAlign=middle;resizable=0;points=[];" vertex="1" connectable="0" parent="sfbl0dZxAEL_RyN4LRYT-11">
          <mxGeometry x="0.7743" y="3" relative="1" as="geometry">
            <mxPoint as="offset" />
          </mxGeometry>
        </mxCell>
        <mxCell id="sfbl0dZxAEL_RyN4LRYT-12" value="" style="endArrow=none;html=1;rounded=0;entryX=0.5;entryY=1;entryDx=0;entryDy=0;entryPerimeter=0;exitX=0.5;exitY=1;exitDx=0;exitDy=0;exitPerimeter=0;" edge="1" parent="1" source="sfbl0dZxAEL_RyN4LRYT-7" target="sfbl0dZxAEL_RyN4LRYT-4">
          <mxGeometry width="50" height="50" relative="1" as="geometry">
            <mxPoint x="669" y="212" as="sourcePoint" />
            <mxPoint x="478" y="136" as="targetPoint" />
          </mxGeometry>
        </mxCell>
        <mxCell id="sfbl0dZxAEL_RyN4LRYT-57" value="2" style="edgeLabel;html=1;align=center;verticalAlign=middle;resizable=0;points=[];" vertex="1" connectable="0" parent="sfbl0dZxAEL_RyN4LRYT-12">
          <mxGeometry x="-0.8111" relative="1" as="geometry">
            <mxPoint x="1" as="offset" />
          </mxGeometry>
        </mxCell>
        <mxCell id="sfbl0dZxAEL_RyN4LRYT-58" value="1" style="edgeLabel;html=1;align=center;verticalAlign=middle;resizable=0;points=[];" vertex="1" connectable="0" parent="sfbl0dZxAEL_RyN4LRYT-12">
          <mxGeometry x="0.8259" relative="1" as="geometry">
            <mxPoint as="offset" />
          </mxGeometry>
        </mxCell>
        <mxCell id="sfbl0dZxAEL_RyN4LRYT-13" value="" style="endArrow=none;html=1;rounded=0;entryX=0.145;entryY=0.855;entryDx=0;entryDy=0;entryPerimeter=0;exitX=0.145;exitY=0.855;exitDx=0;exitDy=0;exitPerimeter=0;" edge="1" parent="1" source="sfbl0dZxAEL_RyN4LRYT-4" target="sfbl0dZxAEL_RyN4LRYT-3">
          <mxGeometry width="50" height="50" relative="1" as="geometry">
            <mxPoint x="679" y="222" as="sourcePoint" />
            <mxPoint x="488" y="146" as="targetPoint" />
          </mxGeometry>
        </mxCell>
        <mxCell id="sfbl0dZxAEL_RyN4LRYT-59" value="2" style="edgeLabel;html=1;align=center;verticalAlign=middle;resizable=0;points=[];" vertex="1" connectable="0" parent="sfbl0dZxAEL_RyN4LRYT-13">
          <mxGeometry x="-0.7162" y="4" relative="1" as="geometry">
            <mxPoint x="1" as="offset" />
          </mxGeometry>
        </mxCell>
        <mxCell id="sfbl0dZxAEL_RyN4LRYT-60" value="1" style="edgeLabel;html=1;align=center;verticalAlign=middle;resizable=0;points=[];" vertex="1" connectable="0" parent="sfbl0dZxAEL_RyN4LRYT-13">
          <mxGeometry x="0.7787" y="-1" relative="1" as="geometry">
            <mxPoint as="offset" />
          </mxGeometry>
        </mxCell>
        <mxCell id="sfbl0dZxAEL_RyN4LRYT-14" value="" style="endArrow=none;html=1;rounded=0;entryX=0;entryY=0.5;entryDx=0;entryDy=0;entryPerimeter=0;exitX=0;exitY=0.5;exitDx=0;exitDy=0;exitPerimeter=0;" edge="1" parent="1" source="sfbl0dZxAEL_RyN4LRYT-8" target="sfbl0dZxAEL_RyN4LRYT-3">
          <mxGeometry width="50" height="50" relative="1" as="geometry">
            <mxPoint x="689" y="232" as="sourcePoint" />
            <mxPoint x="498" y="156" as="targetPoint" />
          </mxGeometry>
        </mxCell>
        <mxCell id="sfbl0dZxAEL_RyN4LRYT-61" value="2" style="edgeLabel;html=1;align=center;verticalAlign=middle;resizable=0;points=[];" vertex="1" connectable="0" parent="sfbl0dZxAEL_RyN4LRYT-14">
          <mxGeometry x="0.7304" y="-3" relative="1" as="geometry">
            <mxPoint as="offset" />
          </mxGeometry>
        </mxCell>
        <mxCell id="sfbl0dZxAEL_RyN4LRYT-62" value="1" style="edgeLabel;html=1;align=center;verticalAlign=middle;resizable=0;points=[];" vertex="1" connectable="0" parent="sfbl0dZxAEL_RyN4LRYT-14">
          <mxGeometry x="-0.8435" y="-1" relative="1" as="geometry">
            <mxPoint as="offset" />
          </mxGeometry>
        </mxCell>
        <mxCell id="sfbl0dZxAEL_RyN4LRYT-15" value="" style="endArrow=none;html=1;rounded=0;entryX=0.5;entryY=0;entryDx=0;entryDy=0;entryPerimeter=0;exitX=0.145;exitY=0.145;exitDx=0;exitDy=0;exitPerimeter=0;" edge="1" parent="1" source="sfbl0dZxAEL_RyN4LRYT-1" target="sfbl0dZxAEL_RyN4LRYT-8">
          <mxGeometry width="50" height="50" relative="1" as="geometry">
            <mxPoint x="699" y="242" as="sourcePoint" />
            <mxPoint x="508" y="166" as="targetPoint" />
          </mxGeometry>
        </mxCell>
        <mxCell id="sfbl0dZxAEL_RyN4LRYT-63" value="2" style="edgeLabel;html=1;align=center;verticalAlign=middle;resizable=0;points=[];" vertex="1" connectable="0" parent="sfbl0dZxAEL_RyN4LRYT-15">
          <mxGeometry x="0.825" relative="1" as="geometry">
            <mxPoint as="offset" />
          </mxGeometry>
        </mxCell>
        <mxCell id="sfbl0dZxAEL_RyN4LRYT-64" value="2" style="edgeLabel;html=1;align=center;verticalAlign=middle;resizable=0;points=[];" vertex="1" connectable="0" parent="sfbl0dZxAEL_RyN4LRYT-15">
          <mxGeometry x="-0.8887" relative="1" as="geometry">
            <mxPoint as="offset" />
          </mxGeometry>
        </mxCell>
        <mxCell id="sfbl0dZxAEL_RyN4LRYT-16" value="" style="endArrow=none;dashed=1;html=1;dashPattern=1 3;strokeWidth=2;rounded=0;exitX=0.145;exitY=0.145;exitDx=0;exitDy=0;exitPerimeter=0;entryX=0.145;entryY=0.855;entryDx=0;entryDy=0;entryPerimeter=0;" edge="1" parent="1" source="sfbl0dZxAEL_RyN4LRYT-3" target="sfbl0dZxAEL_RyN4LRYT-8">
          <mxGeometry width="50" height="50" relative="1" as="geometry">
            <mxPoint x="390" y="420" as="sourcePoint" />
            <mxPoint x="440" y="370" as="targetPoint" />
          </mxGeometry>
        </mxCell>
        <mxCell id="sfbl0dZxAEL_RyN4LRYT-17" value="" style="endArrow=none;dashed=1;html=1;dashPattern=1 3;strokeWidth=2;rounded=0;exitX=0.855;exitY=0.145;exitDx=0;exitDy=0;exitPerimeter=0;entryX=0;entryY=0.5;entryDx=0;entryDy=0;entryPerimeter=0;" edge="1" parent="1" source="sfbl0dZxAEL_RyN4LRYT-8" target="sfbl0dZxAEL_RyN4LRYT-1">
          <mxGeometry width="50" height="50" relative="1" as="geometry">
            <mxPoint x="189" y="410" as="sourcePoint" />
            <mxPoint x="390" y="120" as="targetPoint" />
          </mxGeometry>
        </mxCell>
        <mxCell id="sfbl0dZxAEL_RyN4LRYT-18" value="" style="endArrow=none;dashed=1;html=1;dashPattern=1 3;strokeWidth=2;rounded=0;entryX=0.145;entryY=0.145;entryDx=0;entryDy=0;entryPerimeter=0;exitX=1;exitY=0.5;exitDx=0;exitDy=0;exitPerimeter=0;" edge="1" parent="1" source="sfbl0dZxAEL_RyN4LRYT-1" target="sfbl0dZxAEL_RyN4LRYT-5">
          <mxGeometry width="50" height="50" relative="1" as="geometry">
            <mxPoint x="450" y="120" as="sourcePoint" />
            <mxPoint x="580" y="200" as="targetPoint" />
          </mxGeometry>
        </mxCell>
        <mxCell id="sfbl0dZxAEL_RyN4LRYT-19" value="" style="endArrow=none;dashed=1;html=1;dashPattern=1 3;strokeWidth=2;rounded=0;exitX=0.855;exitY=0.145;exitDx=0;exitDy=0;exitPerimeter=0;entryX=0.855;entryY=0.855;entryDx=0;entryDy=0;entryPerimeter=0;" edge="1" parent="1" source="sfbl0dZxAEL_RyN4LRYT-6" target="sfbl0dZxAEL_RyN4LRYT-5">
          <mxGeometry width="50" height="50" relative="1" as="geometry">
            <mxPoint x="209" y="430" as="sourcePoint" />
            <mxPoint x="209" y="252" as="targetPoint" />
          </mxGeometry>
        </mxCell>
        <mxCell id="sfbl0dZxAEL_RyN4LRYT-20" value="" style="endArrow=none;dashed=1;html=1;dashPattern=1 3;strokeWidth=2;rounded=0;exitX=0;exitY=0.5;exitDx=0;exitDy=0;exitPerimeter=0;entryX=0.5;entryY=1;entryDx=0;entryDy=0;entryPerimeter=0;" edge="1" parent="1" source="sfbl0dZxAEL_RyN4LRYT-4" target="sfbl0dZxAEL_RyN4LRYT-3">
          <mxGeometry width="50" height="50" relative="1" as="geometry">
            <mxPoint x="219" y="440" as="sourcePoint" />
            <mxPoint x="219" y="262" as="targetPoint" />
          </mxGeometry>
        </mxCell>
        <mxCell id="sfbl0dZxAEL_RyN4LRYT-21" value="" style="endArrow=none;dashed=1;html=1;dashPattern=1 3;strokeWidth=2;rounded=0;entryX=0.855;entryY=0.855;entryDx=0;entryDy=0;entryPerimeter=0;exitX=0.145;exitY=0.855;exitDx=0;exitDy=0;exitPerimeter=0;" edge="1" parent="1" source="sfbl0dZxAEL_RyN4LRYT-7" target="sfbl0dZxAEL_RyN4LRYT-4">
          <mxGeometry width="50" height="50" relative="1" as="geometry">
            <mxPoint x="510" y="560" as="sourcePoint" />
            <mxPoint x="330" y="550" as="targetPoint" />
          </mxGeometry>
        </mxCell>
        <mxCell id="sfbl0dZxAEL_RyN4LRYT-22" value="" style="endArrow=none;dashed=1;html=1;dashPattern=1 3;strokeWidth=2;rounded=0;exitX=1;exitY=0.5;exitDx=0;exitDy=0;exitPerimeter=0;entryX=0.5;entryY=1;entryDx=0;entryDy=0;entryPerimeter=0;" edge="1" parent="1" source="sfbl0dZxAEL_RyN4LRYT-7" target="sfbl0dZxAEL_RyN4LRYT-6">
          <mxGeometry width="50" height="50" relative="1" as="geometry">
            <mxPoint x="239" y="460" as="sourcePoint" />
            <mxPoint x="239" y="282" as="targetPoint" />
          </mxGeometry>
        </mxCell>
        <mxCell id="sfbl0dZxAEL_RyN4LRYT-24" value="ceos1" style="text;html=1;align=center;verticalAlign=middle;resizable=0;points=[];autosize=1;strokeColor=none;fillColor=none;" vertex="1" parent="1">
          <mxGeometry x="384" y="40" width="60" height="30" as="geometry" />
        </mxCell>
        <mxCell id="sfbl0dZxAEL_RyN4LRYT-26" value="ceos2" style="text;html=1;align=center;verticalAlign=middle;resizable=0;points=[];autosize=1;strokeColor=none;fillColor=none;" vertex="1" parent="1">
          <mxGeometry x="730" y="142" width="60" height="30" as="geometry" />
        </mxCell>
        <mxCell id="sfbl0dZxAEL_RyN4LRYT-27" value="ceos3" style="text;html=1;align=center;verticalAlign=middle;resizable=0;points=[];autosize=1;strokeColor=none;fillColor=none;" vertex="1" parent="1">
          <mxGeometry x="740" y="432" width="60" height="30" as="geometry" />
        </mxCell>
        <mxCell id="sfbl0dZxAEL_RyN4LRYT-28" value="ceos4" style="text;html=1;align=center;verticalAlign=middle;resizable=0;points=[];autosize=1;strokeColor=none;fillColor=none;" vertex="1" parent="1">
          <mxGeometry x="600" y="660" width="60" height="30" as="geometry" />
        </mxCell>
        <mxCell id="sfbl0dZxAEL_RyN4LRYT-29" value="ceos5" style="text;html=1;align=center;verticalAlign=middle;resizable=0;points=[];autosize=1;strokeColor=none;fillColor=none;" vertex="1" parent="1">
          <mxGeometry x="200" y="660" width="60" height="30" as="geometry" />
        </mxCell>
        <mxCell id="sfbl0dZxAEL_RyN4LRYT-30" value="ceos6" style="text;html=1;align=center;verticalAlign=middle;resizable=0;points=[];autosize=1;strokeColor=none;fillColor=none;" vertex="1" parent="1">
          <mxGeometry x="20" y="430" width="60" height="30" as="geometry" />
        </mxCell>
        <mxCell id="sfbl0dZxAEL_RyN4LRYT-31" value="ceos7" style="text;html=1;align=center;verticalAlign=middle;resizable=0;points=[];autosize=1;strokeColor=none;fillColor=none;" vertex="1" parent="1">
          <mxGeometry x="20" y="170" width="60" height="30" as="geometry" />
        </mxCell>
        <mxCell id="sfbl0dZxAEL_RyN4LRYT-32" value="" style="endArrow=none;html=1;rounded=0;exitX=0.855;exitY=0.145;exitDx=0;exitDy=0;exitPerimeter=0;entryX=0.145;entryY=0.855;entryDx=0;entryDy=0;entryPerimeter=0;" edge="1" parent="1" source="sfbl0dZxAEL_RyN4LRYT-3" target="sfbl0dZxAEL_RyN4LRYT-1">
          <mxGeometry width="50" height="50" relative="1" as="geometry">
            <mxPoint x="340" y="420" as="sourcePoint" />
            <mxPoint x="320" y="160" as="targetPoint" />
          </mxGeometry>
        </mxCell>
        <mxCell id="sfbl0dZxAEL_RyN4LRYT-68" value="6" style="edgeLabel;html=1;align=center;verticalAlign=middle;resizable=0;points=[];" vertex="1" connectable="0" parent="sfbl0dZxAEL_RyN4LRYT-32">
          <mxGeometry x="0.8211" y="-2" relative="1" as="geometry">
            <mxPoint as="offset" />
          </mxGeometry>
        </mxCell>
        <mxCell id="sfbl0dZxAEL_RyN4LRYT-86" value="3" style="edgeLabel;html=1;align=center;verticalAlign=middle;resizable=0;points=[];" vertex="1" connectable="0" parent="sfbl0dZxAEL_RyN4LRYT-32">
          <mxGeometry x="-0.91" y="1" relative="1" as="geometry">
            <mxPoint x="1" as="offset" />
          </mxGeometry>
        </mxCell>
        <mxCell id="sfbl0dZxAEL_RyN4LRYT-34" value="" style="endArrow=none;html=1;rounded=0;entryX=0.855;entryY=0.855;entryDx=0;entryDy=0;entryPerimeter=0;" edge="1" parent="1" target="sfbl0dZxAEL_RyN4LRYT-1">
          <mxGeometry width="50" height="50" relative="1" as="geometry">
            <mxPoint x="649" y="400" as="sourcePoint" />
            <mxPoint x="399" y="142" as="targetPoint" />
          </mxGeometry>
        </mxCell>
        <mxCell id="sfbl0dZxAEL_RyN4LRYT-65" value="3" style="edgeLabel;html=1;align=center;verticalAlign=middle;resizable=0;points=[];" vertex="1" connectable="0" parent="sfbl0dZxAEL_RyN4LRYT-34">
          <mxGeometry x="0.8864" y="-1" relative="1" as="geometry">
            <mxPoint as="offset" />
          </mxGeometry>
        </mxCell>
        <mxCell id="sfbl0dZxAEL_RyN4LRYT-76" value="6" style="edgeLabel;html=1;align=center;verticalAlign=middle;resizable=0;points=[];" vertex="1" connectable="0" parent="sfbl0dZxAEL_RyN4LRYT-34">
          <mxGeometry x="-0.7529" y="-1" relative="1" as="geometry">
            <mxPoint as="offset" />
          </mxGeometry>
        </mxCell>
        <mxCell id="sfbl0dZxAEL_RyN4LRYT-35" value="" style="endArrow=none;html=1;rounded=0;exitX=0.5;exitY=0;exitDx=0;exitDy=0;exitPerimeter=0;entryX=0.304;entryY=0.972;entryDx=0;entryDy=0;entryPerimeter=0;" edge="1" parent="1" source="sfbl0dZxAEL_RyN4LRYT-4" target="sfbl0dZxAEL_RyN4LRYT-1">
          <mxGeometry width="50" height="50" relative="1" as="geometry">
            <mxPoint x="199" y="420" as="sourcePoint" />
            <mxPoint x="400" y="190" as="targetPoint" />
          </mxGeometry>
        </mxCell>
        <mxCell id="sfbl0dZxAEL_RyN4LRYT-67" value="5" style="edgeLabel;html=1;align=center;verticalAlign=middle;resizable=0;points=[];" vertex="1" connectable="0" parent="sfbl0dZxAEL_RyN4LRYT-35">
          <mxGeometry x="0.9037" y="-1" relative="1" as="geometry">
            <mxPoint as="offset" />
          </mxGeometry>
        </mxCell>
        <mxCell id="sfbl0dZxAEL_RyN4LRYT-82" value="4" style="edgeLabel;html=1;align=center;verticalAlign=middle;resizable=0;points=[];" vertex="1" connectable="0" parent="sfbl0dZxAEL_RyN4LRYT-35">
          <mxGeometry x="-0.8553" relative="1" as="geometry">
            <mxPoint x="1" as="offset" />
          </mxGeometry>
        </mxCell>
        <mxCell id="sfbl0dZxAEL_RyN4LRYT-36" value="" style="endArrow=none;html=1;rounded=0;exitX=0.5;exitY=0;exitDx=0;exitDy=0;exitPerimeter=0;entryX=0.739;entryY=0.972;entryDx=0;entryDy=0;entryPerimeter=0;" edge="1" parent="1" source="sfbl0dZxAEL_RyN4LRYT-7" target="sfbl0dZxAEL_RyN4LRYT-1">
          <mxGeometry width="50" height="50" relative="1" as="geometry">
            <mxPoint x="209" y="430" as="sourcePoint" />
            <mxPoint x="419" y="162" as="targetPoint" />
          </mxGeometry>
        </mxCell>
        <mxCell id="sfbl0dZxAEL_RyN4LRYT-66" value="4" style="edgeLabel;html=1;align=center;verticalAlign=middle;resizable=0;points=[];" vertex="1" connectable="0" parent="sfbl0dZxAEL_RyN4LRYT-36">
          <mxGeometry x="0.9183" y="2" relative="1" as="geometry">
            <mxPoint as="offset" />
          </mxGeometry>
        </mxCell>
        <mxCell id="sfbl0dZxAEL_RyN4LRYT-79" value="5" style="edgeLabel;html=1;align=center;verticalAlign=middle;resizable=0;points=[];" vertex="1" connectable="0" parent="sfbl0dZxAEL_RyN4LRYT-36">
          <mxGeometry x="-0.8906" y="-2" relative="1" as="geometry">
            <mxPoint as="offset" />
          </mxGeometry>
        </mxCell>
        <mxCell id="sfbl0dZxAEL_RyN4LRYT-37" value="" style="endArrow=none;html=1;rounded=0;entryX=0.145;entryY=0.855;entryDx=0;entryDy=0;entryPerimeter=0;exitX=1;exitY=0.5;exitDx=0;exitDy=0;exitPerimeter=0;" edge="1" parent="1" source="sfbl0dZxAEL_RyN4LRYT-4" target="sfbl0dZxAEL_RyN4LRYT-6">
          <mxGeometry width="50" height="50" relative="1" as="geometry">
            <mxPoint x="340" y="420" as="sourcePoint" />
            <mxPoint x="390" y="370" as="targetPoint" />
          </mxGeometry>
        </mxCell>
        <mxCell id="sfbl0dZxAEL_RyN4LRYT-73" value="3" style="edgeLabel;html=1;align=center;verticalAlign=middle;resizable=0;points=[];" vertex="1" connectable="0" parent="sfbl0dZxAEL_RyN4LRYT-37">
          <mxGeometry x="0.8869" y="-3" relative="1" as="geometry">
            <mxPoint as="offset" />
          </mxGeometry>
        </mxCell>
        <mxCell id="sfbl0dZxAEL_RyN4LRYT-84" value="6" style="edgeLabel;html=1;align=center;verticalAlign=middle;resizable=0;points=[];" vertex="1" connectable="0" parent="sfbl0dZxAEL_RyN4LRYT-37">
          <mxGeometry x="-0.8156" y="1" relative="1" as="geometry">
            <mxPoint as="offset" />
          </mxGeometry>
        </mxCell>
        <mxCell id="sfbl0dZxAEL_RyN4LRYT-38" value="" style="endArrow=none;html=1;rounded=0;entryX=0;entryY=0.5;entryDx=0;entryDy=0;entryPerimeter=0;exitX=0.855;exitY=0.855;exitDx=0;exitDy=0;exitPerimeter=0;" edge="1" parent="1" source="sfbl0dZxAEL_RyN4LRYT-3" target="sfbl0dZxAEL_RyN4LRYT-7">
          <mxGeometry width="50" height="50" relative="1" as="geometry">
            <mxPoint x="340" y="420" as="sourcePoint" />
            <mxPoint x="390" y="370" as="targetPoint" />
          </mxGeometry>
        </mxCell>
        <mxCell id="sfbl0dZxAEL_RyN4LRYT-77" value="3" style="edgeLabel;html=1;align=center;verticalAlign=middle;resizable=0;points=[];" vertex="1" connectable="0" parent="sfbl0dZxAEL_RyN4LRYT-38">
          <mxGeometry x="0.8968" y="-2" relative="1" as="geometry">
            <mxPoint as="offset" />
          </mxGeometry>
        </mxCell>
        <mxCell id="sfbl0dZxAEL_RyN4LRYT-89" value="6" style="edgeLabel;html=1;align=center;verticalAlign=middle;resizable=0;points=[];" vertex="1" connectable="0" parent="sfbl0dZxAEL_RyN4LRYT-38">
          <mxGeometry x="-0.8981" y="3" relative="1" as="geometry">
            <mxPoint as="offset" />
          </mxGeometry>
        </mxCell>
        <mxCell id="sfbl0dZxAEL_RyN4LRYT-39" value="" style="endArrow=none;html=1;rounded=0;entryX=1;entryY=0.5;entryDx=0;entryDy=0;entryPerimeter=0;" edge="1" parent="1" source="sfbl0dZxAEL_RyN4LRYT-5" target="sfbl0dZxAEL_RyN4LRYT-8">
          <mxGeometry width="50" height="50" relative="1" as="geometry">
            <mxPoint x="340" y="420" as="sourcePoint" />
            <mxPoint x="390" y="370" as="targetPoint" />
          </mxGeometry>
        </mxCell>
        <mxCell id="sfbl0dZxAEL_RyN4LRYT-72" value="6" style="edgeLabel;html=1;align=center;verticalAlign=middle;resizable=0;points=[];" vertex="1" connectable="0" parent="sfbl0dZxAEL_RyN4LRYT-39">
          <mxGeometry x="-0.88" y="-1" relative="1" as="geometry">
            <mxPoint as="offset" />
          </mxGeometry>
        </mxCell>
        <mxCell id="sfbl0dZxAEL_RyN4LRYT-90" value="3" style="edgeLabel;html=1;align=center;verticalAlign=middle;resizable=0;points=[];" vertex="1" connectable="0" parent="sfbl0dZxAEL_RyN4LRYT-39">
          <mxGeometry x="0.8978" relative="1" as="geometry">
            <mxPoint as="offset" />
          </mxGeometry>
        </mxCell>
        <mxCell id="sfbl0dZxAEL_RyN4LRYT-40" value="" style="endArrow=none;html=1;rounded=0;entryX=0;entryY=0.5;entryDx=0;entryDy=0;entryPerimeter=0;exitX=1;exitY=0.5;exitDx=0;exitDy=0;exitPerimeter=0;" edge="1" parent="1" source="sfbl0dZxAEL_RyN4LRYT-3" target="sfbl0dZxAEL_RyN4LRYT-6">
          <mxGeometry width="50" height="50" relative="1" as="geometry">
            <mxPoint x="340" y="420" as="sourcePoint" />
            <mxPoint x="390" y="370" as="targetPoint" />
          </mxGeometry>
        </mxCell>
        <mxCell id="sfbl0dZxAEL_RyN4LRYT-74" value="4" style="edgeLabel;html=1;align=center;verticalAlign=middle;resizable=0;points=[];" vertex="1" connectable="0" parent="sfbl0dZxAEL_RyN4LRYT-40">
          <mxGeometry x="0.9378" relative="1" as="geometry">
            <mxPoint as="offset" />
          </mxGeometry>
        </mxCell>
        <mxCell id="sfbl0dZxAEL_RyN4LRYT-88" value="5" style="edgeLabel;html=1;align=center;verticalAlign=middle;resizable=0;points=[];" vertex="1" connectable="0" parent="sfbl0dZxAEL_RyN4LRYT-40">
          <mxGeometry x="-0.8133" y="-1" relative="1" as="geometry">
            <mxPoint as="offset" />
          </mxGeometry>
        </mxCell>
        <mxCell id="sfbl0dZxAEL_RyN4LRYT-41" value="" style="endArrow=none;html=1;rounded=0;entryX=0.855;entryY=0.855;entryDx=0;entryDy=0;entryPerimeter=0;exitX=0.145;exitY=0.145;exitDx=0;exitDy=0;exitPerimeter=0;" edge="1" parent="1" source="sfbl0dZxAEL_RyN4LRYT-7" target="sfbl0dZxAEL_RyN4LRYT-8">
          <mxGeometry width="50" height="50" relative="1" as="geometry">
            <mxPoint x="340" y="420" as="sourcePoint" />
            <mxPoint x="390" y="370" as="targetPoint" />
          </mxGeometry>
        </mxCell>
        <mxCell id="sfbl0dZxAEL_RyN4LRYT-78" value="4" style="edgeLabel;html=1;align=center;verticalAlign=middle;resizable=0;points=[];" vertex="1" connectable="0" parent="sfbl0dZxAEL_RyN4LRYT-41">
          <mxGeometry x="-0.9101" relative="1" as="geometry">
            <mxPoint as="offset" />
          </mxGeometry>
        </mxCell>
        <mxCell id="sfbl0dZxAEL_RyN4LRYT-92" value="5" style="edgeLabel;html=1;align=center;verticalAlign=middle;resizable=0;points=[];" vertex="1" connectable="0" parent="sfbl0dZxAEL_RyN4LRYT-41">
          <mxGeometry x="0.8985" y="2" relative="1" as="geometry">
            <mxPoint as="offset" />
          </mxGeometry>
        </mxCell>
        <mxCell id="sfbl0dZxAEL_RyN4LRYT-42" value="" style="endArrow=none;html=1;rounded=0;entryX=0.145;entryY=0.855;entryDx=0;entryDy=0;entryPerimeter=0;exitX=0.855;exitY=0.145;exitDx=0;exitDy=0;exitPerimeter=0;" edge="1" parent="1" source="sfbl0dZxAEL_RyN4LRYT-4" target="sfbl0dZxAEL_RyN4LRYT-5">
          <mxGeometry width="50" height="50" relative="1" as="geometry">
            <mxPoint x="340" y="420" as="sourcePoint" />
            <mxPoint x="390" y="370" as="targetPoint" />
          </mxGeometry>
        </mxCell>
        <mxCell id="sfbl0dZxAEL_RyN4LRYT-70" value="4" style="edgeLabel;html=1;align=center;verticalAlign=middle;resizable=0;points=[];" vertex="1" connectable="0" parent="sfbl0dZxAEL_RyN4LRYT-42">
          <mxGeometry x="0.9367" relative="1" as="geometry">
            <mxPoint as="offset" />
          </mxGeometry>
        </mxCell>
        <mxCell id="sfbl0dZxAEL_RyN4LRYT-83" value="5" style="edgeLabel;html=1;align=center;verticalAlign=middle;resizable=0;points=[];" vertex="1" connectable="0" parent="sfbl0dZxAEL_RyN4LRYT-42">
          <mxGeometry x="-0.8972" y="-1" relative="1" as="geometry">
            <mxPoint as="offset" />
          </mxGeometry>
        </mxCell>
        <mxCell id="sfbl0dZxAEL_RyN4LRYT-43" value="" style="endArrow=none;html=1;rounded=0;entryX=0.5;entryY=1;entryDx=0;entryDy=0;entryPerimeter=0;exitX=0.145;exitY=0.145;exitDx=0;exitDy=0;exitPerimeter=0;" edge="1" parent="1" source="sfbl0dZxAEL_RyN4LRYT-4" target="sfbl0dZxAEL_RyN4LRYT-8">
          <mxGeometry width="50" height="50" relative="1" as="geometry">
            <mxPoint x="340" y="420" as="sourcePoint" />
            <mxPoint x="390" y="370" as="targetPoint" />
          </mxGeometry>
        </mxCell>
        <mxCell id="sfbl0dZxAEL_RyN4LRYT-81" value="3" style="edgeLabel;html=1;align=center;verticalAlign=middle;resizable=0;points=[];" vertex="1" connectable="0" parent="sfbl0dZxAEL_RyN4LRYT-43">
          <mxGeometry x="-0.8486" relative="1" as="geometry">
            <mxPoint as="offset" />
          </mxGeometry>
        </mxCell>
        <mxCell id="sfbl0dZxAEL_RyN4LRYT-93" value="6" style="edgeLabel;html=1;align=center;verticalAlign=middle;resizable=0;points=[];" vertex="1" connectable="0" parent="sfbl0dZxAEL_RyN4LRYT-43">
          <mxGeometry x="0.8357" y="1" relative="1" as="geometry">
            <mxPoint as="offset" />
          </mxGeometry>
        </mxCell>
        <mxCell id="sfbl0dZxAEL_RyN4LRYT-44" value="" style="endArrow=none;html=1;rounded=0;entryX=0.5;entryY=1;entryDx=0;entryDy=0;entryPerimeter=0;exitX=0.855;exitY=0.145;exitDx=0;exitDy=0;exitPerimeter=0;" edge="1" parent="1" source="sfbl0dZxAEL_RyN4LRYT-7" target="sfbl0dZxAEL_RyN4LRYT-5">
          <mxGeometry width="50" height="50" relative="1" as="geometry">
            <mxPoint x="340" y="420" as="sourcePoint" />
            <mxPoint x="390" y="370" as="targetPoint" />
          </mxGeometry>
        </mxCell>
        <mxCell id="sfbl0dZxAEL_RyN4LRYT-69" value="3" style="edgeLabel;html=1;align=center;verticalAlign=middle;resizable=0;points=[];" vertex="1" connectable="0" parent="sfbl0dZxAEL_RyN4LRYT-44">
          <mxGeometry x="0.8702" y="-1" relative="1" as="geometry">
            <mxPoint as="offset" />
          </mxGeometry>
        </mxCell>
        <mxCell id="sfbl0dZxAEL_RyN4LRYT-80" value="6" style="edgeLabel;html=1;align=center;verticalAlign=middle;resizable=0;points=[];" vertex="1" connectable="0" parent="sfbl0dZxAEL_RyN4LRYT-44">
          <mxGeometry x="-0.8344" y="-1" relative="1" as="geometry">
            <mxPoint as="offset" />
          </mxGeometry>
        </mxCell>
        <mxCell id="sfbl0dZxAEL_RyN4LRYT-45" value="" style="endArrow=none;html=1;rounded=0;entryX=1.014;entryY=0.694;entryDx=0;entryDy=0;entryPerimeter=0;" edge="1" parent="1" source="sfbl0dZxAEL_RyN4LRYT-6" target="sfbl0dZxAEL_RyN4LRYT-8">
          <mxGeometry width="50" height="50" relative="1" as="geometry">
            <mxPoint x="340" y="420" as="sourcePoint" />
            <mxPoint x="390" y="370" as="targetPoint" />
          </mxGeometry>
        </mxCell>
        <mxCell id="sfbl0dZxAEL_RyN4LRYT-75" value="5" style="edgeLabel;html=1;align=center;verticalAlign=middle;resizable=0;points=[];" vertex="1" connectable="0" parent="sfbl0dZxAEL_RyN4LRYT-45">
          <mxGeometry x="-0.8876" y="2" relative="1" as="geometry">
            <mxPoint as="offset" />
          </mxGeometry>
        </mxCell>
        <mxCell id="sfbl0dZxAEL_RyN4LRYT-91" value="4" style="edgeLabel;html=1;align=center;verticalAlign=middle;resizable=0;points=[];" vertex="1" connectable="0" parent="sfbl0dZxAEL_RyN4LRYT-45">
          <mxGeometry x="0.9346" y="2" relative="1" as="geometry">
            <mxPoint as="offset" />
          </mxGeometry>
        </mxCell>
        <mxCell id="sfbl0dZxAEL_RyN4LRYT-46" value="" style="endArrow=none;html=1;rounded=0;entryX=0.014;entryY=0.694;entryDx=0;entryDy=0;entryPerimeter=0;" edge="1" parent="1" target="sfbl0dZxAEL_RyN4LRYT-5">
          <mxGeometry width="50" height="50" relative="1" as="geometry">
            <mxPoint x="190" y="410" as="sourcePoint" />
            <mxPoint x="390" y="370" as="targetPoint" />
          </mxGeometry>
        </mxCell>
        <mxCell id="sfbl0dZxAEL_RyN4LRYT-71" value="5" style="edgeLabel;html=1;align=center;verticalAlign=middle;resizable=0;points=[];" vertex="1" connectable="0" parent="sfbl0dZxAEL_RyN4LRYT-46">
          <mxGeometry x="0.9089" y="1" relative="1" as="geometry">
            <mxPoint as="offset" />
          </mxGeometry>
        </mxCell>
        <mxCell id="sfbl0dZxAEL_RyN4LRYT-87" value="4" style="edgeLabel;html=1;align=center;verticalAlign=middle;resizable=0;points=[];" vertex="1" connectable="0" parent="sfbl0dZxAEL_RyN4LRYT-46">
          <mxGeometry x="-0.8652" y="-2" relative="1" as="geometry">
            <mxPoint as="offset" />
          </mxGeometry>
        </mxCell>
      </root>
    </mxGraphModel>
  </diagram>
  <diagram id="9Dui4mZmkWyhiaMBmaeJ" name="Page-2">
    <mxGraphModel dx="2021" dy="770" grid="1" gridSize="10" guides="1" tooltips="1" connect="1" arrows="1" fold="1" page="1" pageScale="1" pageWidth="827" pageHeight="1169" math="0" shadow="0">
      <root>
        <mxCell id="0" />
        <mxCell id="1" parent="0" />
        <mxCell id="6rMWS8Drp_TLHk2_PpBl-1" value="" style="outlineConnect=0;dashed=0;verticalLabelPosition=bottom;verticalAlign=top;align=center;html=1;shape=mxgraph.aws3.router;fillColor=#F58534;gradientColor=none;" vertex="1" parent="1">
          <mxGeometry x="379" y="40" width="69" height="72" as="geometry" />
        </mxCell>
        <mxCell id="6rMWS8Drp_TLHk2_PpBl-2" value="" style="outlineConnect=0;dashed=0;verticalLabelPosition=bottom;verticalAlign=top;align=center;html=1;shape=mxgraph.aws3.router;fillColor=#F58534;gradientColor=none;" vertex="1" parent="1">
          <mxGeometry x="90" y="130" width="69" height="72" as="geometry" />
        </mxCell>
        <mxCell id="6rMWS8Drp_TLHk2_PpBl-3" value="" style="outlineConnect=0;dashed=0;verticalLabelPosition=bottom;verticalAlign=top;align=center;html=1;shape=mxgraph.aws3.router;fillColor=#F58534;gradientColor=none;" vertex="1" parent="1">
          <mxGeometry x="650" y="130" width="69" height="72" as="geometry" />
        </mxCell>
        <mxCell id="6rMWS8Drp_TLHk2_PpBl-4" value="" style="outlineConnect=0;dashed=0;verticalLabelPosition=bottom;verticalAlign=top;align=center;html=1;shape=mxgraph.aws3.router;fillColor=#F58534;gradientColor=none;" vertex="1" parent="1">
          <mxGeometry x="21" y="310" width="69" height="72" as="geometry" />
        </mxCell>
        <mxCell id="6rMWS8Drp_TLHk2_PpBl-5" value="" style="outlineConnect=0;dashed=0;verticalLabelPosition=bottom;verticalAlign=top;align=center;html=1;shape=mxgraph.aws3.router;fillColor=#F58534;gradientColor=none;" vertex="1" parent="1">
          <mxGeometry x="730" y="310" width="69" height="72" as="geometry" />
        </mxCell>
        <mxCell id="6rMWS8Drp_TLHk2_PpBl-6" value="" style="outlineConnect=0;dashed=0;verticalLabelPosition=bottom;verticalAlign=top;align=center;html=1;shape=mxgraph.aws3.router;fillColor=#F58534;gradientColor=none;" vertex="1" parent="1">
          <mxGeometry x="70" y="500" width="69" height="72" as="geometry" />
        </mxCell>
        <mxCell id="6rMWS8Drp_TLHk2_PpBl-7" value="" style="outlineConnect=0;dashed=0;verticalLabelPosition=bottom;verticalAlign=top;align=center;html=1;shape=mxgraph.aws3.router;fillColor=#F58534;gradientColor=none;" vertex="1" parent="1">
          <mxGeometry x="650" y="490" width="69" height="72" as="geometry" />
        </mxCell>
        <mxCell id="6rMWS8Drp_TLHk2_PpBl-8" value="" style="outlineConnect=0;dashed=0;verticalLabelPosition=bottom;verticalAlign=top;align=center;html=1;shape=mxgraph.aws3.router;fillColor=#F58534;gradientColor=none;" vertex="1" parent="1">
          <mxGeometry x="520" y="630" width="69" height="72" as="geometry" />
        </mxCell>
        <mxCell id="6rMWS8Drp_TLHk2_PpBl-9" value="" style="outlineConnect=0;dashed=0;verticalLabelPosition=bottom;verticalAlign=top;align=center;html=1;shape=mxgraph.aws3.router;fillColor=#F58534;gradientColor=none;" vertex="1" parent="1">
          <mxGeometry x="240" y="630" width="69" height="72" as="geometry" />
        </mxCell>
        <mxCell id="Lf_tgZg6ZEQAH7O0okFb-1" value="" style="endArrow=none;html=1;rounded=0;entryX=0.5;entryY=0;entryDx=0;entryDy=0;entryPerimeter=0;exitX=0.145;exitY=0.145;exitDx=0;exitDy=0;exitPerimeter=0;" edge="1" parent="1" source="6rMWS8Drp_TLHk2_PpBl-1" target="6rMWS8Drp_TLHk2_PpBl-2">
          <mxGeometry width="50" height="50" relative="1" as="geometry">
            <mxPoint x="390" y="420" as="sourcePoint" />
            <mxPoint x="440" y="370" as="targetPoint" />
            <Array as="points">
              <mxPoint x="260" y="90" />
            </Array>
          </mxGeometry>
        </mxCell>
        <mxCell id="NFwSeF7FNU52RPZo8lwg-31" value="2" style="edgeLabel;html=1;align=center;verticalAlign=middle;resizable=0;points=[];" vertex="1" connectable="0" parent="Lf_tgZg6ZEQAH7O0okFb-1">
          <mxGeometry x="-0.8747" y="-2" relative="1" as="geometry">
            <mxPoint as="offset" />
          </mxGeometry>
        </mxCell>
        <mxCell id="NFwSeF7FNU52RPZo8lwg-47" value="2" style="edgeLabel;html=1;align=center;verticalAlign=middle;resizable=0;points=[];" vertex="1" connectable="0" parent="Lf_tgZg6ZEQAH7O0okFb-1">
          <mxGeometry x="0.8939" y="-2" relative="1" as="geometry">
            <mxPoint as="offset" />
          </mxGeometry>
        </mxCell>
        <mxCell id="Lf_tgZg6ZEQAH7O0okFb-2" value="" style="endArrow=none;html=1;rounded=0;entryX=0.5;entryY=0;entryDx=0;entryDy=0;entryPerimeter=0;exitX=0.855;exitY=0.145;exitDx=0;exitDy=0;exitPerimeter=0;" edge="1" parent="1" source="6rMWS8Drp_TLHk2_PpBl-1" target="6rMWS8Drp_TLHk2_PpBl-3">
          <mxGeometry width="50" height="50" relative="1" as="geometry">
            <mxPoint x="399" y="60" as="sourcePoint" />
            <mxPoint x="135" y="140" as="targetPoint" />
          </mxGeometry>
        </mxCell>
        <mxCell id="NFwSeF7FNU52RPZo8lwg-30" value="1" style="edgeLabel;html=1;align=center;verticalAlign=middle;resizable=0;points=[];" vertex="1" connectable="0" parent="Lf_tgZg6ZEQAH7O0okFb-2">
          <mxGeometry x="-0.7348" y="1" relative="1" as="geometry">
            <mxPoint as="offset" />
          </mxGeometry>
        </mxCell>
        <mxCell id="NFwSeF7FNU52RPZo8lwg-32" value="1" style="edgeLabel;html=1;align=center;verticalAlign=middle;resizable=0;points=[];" vertex="1" connectable="0" parent="Lf_tgZg6ZEQAH7O0okFb-2">
          <mxGeometry x="0.8328" relative="1" as="geometry">
            <mxPoint as="offset" />
          </mxGeometry>
        </mxCell>
        <mxCell id="Lf_tgZg6ZEQAH7O0okFb-3" value="" style="endArrow=none;html=1;rounded=0;entryX=0.855;entryY=0.145;entryDx=0;entryDy=0;entryPerimeter=0;exitX=1;exitY=0.5;exitDx=0;exitDy=0;exitPerimeter=0;" edge="1" parent="1" source="6rMWS8Drp_TLHk2_PpBl-3" target="6rMWS8Drp_TLHk2_PpBl-5">
          <mxGeometry width="50" height="50" relative="1" as="geometry">
            <mxPoint x="409" y="70" as="sourcePoint" />
            <mxPoint x="145" y="150" as="targetPoint" />
          </mxGeometry>
        </mxCell>
        <mxCell id="NFwSeF7FNU52RPZo8lwg-33" value="2" style="edgeLabel;html=1;align=center;verticalAlign=middle;resizable=0;points=[];" vertex="1" connectable="0" parent="Lf_tgZg6ZEQAH7O0okFb-3">
          <mxGeometry x="-0.7784" relative="1" as="geometry">
            <mxPoint as="offset" />
          </mxGeometry>
        </mxCell>
        <mxCell id="NFwSeF7FNU52RPZo8lwg-34" value="1" style="edgeLabel;html=1;align=center;verticalAlign=middle;resizable=0;points=[];" vertex="1" connectable="0" parent="Lf_tgZg6ZEQAH7O0okFb-3">
          <mxGeometry x="0.7786" y="1" relative="1" as="geometry">
            <mxPoint as="offset" />
          </mxGeometry>
        </mxCell>
        <mxCell id="Lf_tgZg6ZEQAH7O0okFb-4" value="" style="endArrow=none;html=1;rounded=0;entryX=1;entryY=0.5;entryDx=0;entryDy=0;entryPerimeter=0;exitX=0.855;exitY=0.855;exitDx=0;exitDy=0;exitPerimeter=0;" edge="1" parent="1" source="6rMWS8Drp_TLHk2_PpBl-5" target="6rMWS8Drp_TLHk2_PpBl-7">
          <mxGeometry width="50" height="50" relative="1" as="geometry">
            <mxPoint x="419" y="80" as="sourcePoint" />
            <mxPoint x="155" y="160" as="targetPoint" />
          </mxGeometry>
        </mxCell>
        <mxCell id="NFwSeF7FNU52RPZo8lwg-35" value="2" style="edgeLabel;html=1;align=center;verticalAlign=middle;resizable=0;points=[];" vertex="1" connectable="0" parent="Lf_tgZg6ZEQAH7O0okFb-4">
          <mxGeometry x="-0.7678" y="1" relative="1" as="geometry">
            <mxPoint as="offset" />
          </mxGeometry>
        </mxCell>
        <mxCell id="NFwSeF7FNU52RPZo8lwg-36" value="1" style="edgeLabel;html=1;align=center;verticalAlign=middle;resizable=0;points=[];" vertex="1" connectable="0" parent="Lf_tgZg6ZEQAH7O0okFb-4">
          <mxGeometry x="0.7579" y="2" relative="1" as="geometry">
            <mxPoint as="offset" />
          </mxGeometry>
        </mxCell>
        <mxCell id="Lf_tgZg6ZEQAH7O0okFb-5" value="" style="endArrow=none;html=1;rounded=0;entryX=0.855;entryY=0.855;entryDx=0;entryDy=0;entryPerimeter=0;exitX=0.855;exitY=0.855;exitDx=0;exitDy=0;exitPerimeter=0;" edge="1" parent="1" source="6rMWS8Drp_TLHk2_PpBl-7" target="6rMWS8Drp_TLHk2_PpBl-8">
          <mxGeometry width="50" height="50" relative="1" as="geometry">
            <mxPoint x="719" y="382" as="sourcePoint" />
            <mxPoint x="719" y="510" as="targetPoint" />
          </mxGeometry>
        </mxCell>
        <mxCell id="NFwSeF7FNU52RPZo8lwg-37" value="2" style="edgeLabel;html=1;align=center;verticalAlign=middle;resizable=0;points=[];" vertex="1" connectable="0" parent="Lf_tgZg6ZEQAH7O0okFb-5">
          <mxGeometry x="-0.692" y="3" relative="1" as="geometry">
            <mxPoint as="offset" />
          </mxGeometry>
        </mxCell>
        <mxCell id="NFwSeF7FNU52RPZo8lwg-38" value="1" style="edgeLabel;html=1;align=center;verticalAlign=middle;resizable=0;points=[];" vertex="1" connectable="0" parent="Lf_tgZg6ZEQAH7O0okFb-5">
          <mxGeometry x="0.634" y="3" relative="1" as="geometry">
            <mxPoint as="offset" />
          </mxGeometry>
        </mxCell>
        <mxCell id="Lf_tgZg6ZEQAH7O0okFb-6" value="" style="endArrow=none;html=1;rounded=0;exitX=0.5;exitY=1;exitDx=0;exitDy=0;exitPerimeter=0;entryX=0.5;entryY=1;entryDx=0;entryDy=0;entryPerimeter=0;" edge="1" parent="1" source="6rMWS8Drp_TLHk2_PpBl-8" target="6rMWS8Drp_TLHk2_PpBl-9">
          <mxGeometry width="50" height="50" relative="1" as="geometry">
            <mxPoint x="729" y="392" as="sourcePoint" />
            <mxPoint x="729" y="520" as="targetPoint" />
          </mxGeometry>
        </mxCell>
        <mxCell id="NFwSeF7FNU52RPZo8lwg-39" value="2" style="edgeLabel;html=1;align=center;verticalAlign=middle;resizable=0;points=[];" vertex="1" connectable="0" parent="Lf_tgZg6ZEQAH7O0okFb-6">
          <mxGeometry x="-0.725" relative="1" as="geometry">
            <mxPoint x="1" as="offset" />
          </mxGeometry>
        </mxCell>
        <mxCell id="NFwSeF7FNU52RPZo8lwg-40" value="1" style="edgeLabel;html=1;align=center;verticalAlign=middle;resizable=0;points=[];" vertex="1" connectable="0" parent="Lf_tgZg6ZEQAH7O0okFb-6">
          <mxGeometry x="0.7107" y="1" relative="1" as="geometry">
            <mxPoint as="offset" />
          </mxGeometry>
        </mxCell>
        <mxCell id="Lf_tgZg6ZEQAH7O0okFb-7" value="" style="endArrow=none;html=1;rounded=0;entryX=0.145;entryY=0.855;entryDx=0;entryDy=0;entryPerimeter=0;exitX=0.145;exitY=0.855;exitDx=0;exitDy=0;exitPerimeter=0;" edge="1" parent="1" source="6rMWS8Drp_TLHk2_PpBl-6" target="6rMWS8Drp_TLHk2_PpBl-9">
          <mxGeometry width="50" height="50" relative="1" as="geometry">
            <mxPoint x="739" y="402" as="sourcePoint" />
            <mxPoint x="739" y="530" as="targetPoint" />
          </mxGeometry>
        </mxCell>
        <mxCell id="NFwSeF7FNU52RPZo8lwg-41" value="2" style="edgeLabel;html=1;align=center;verticalAlign=middle;resizable=0;points=[];" vertex="1" connectable="0" parent="Lf_tgZg6ZEQAH7O0okFb-7">
          <mxGeometry x="0.8566" relative="1" as="geometry">
            <mxPoint as="offset" />
          </mxGeometry>
        </mxCell>
        <mxCell id="NFwSeF7FNU52RPZo8lwg-42" value="1" style="edgeLabel;html=1;align=center;verticalAlign=middle;resizable=0;points=[];" vertex="1" connectable="0" parent="Lf_tgZg6ZEQAH7O0okFb-7">
          <mxGeometry x="-0.7133" y="-2" relative="1" as="geometry">
            <mxPoint as="offset" />
          </mxGeometry>
        </mxCell>
        <mxCell id="Lf_tgZg6ZEQAH7O0okFb-8" value="" style="endArrow=none;html=1;rounded=0;entryX=0;entryY=0.5;entryDx=0;entryDy=0;entryPerimeter=0;exitX=0.145;exitY=0.855;exitDx=0;exitDy=0;exitPerimeter=0;" edge="1" parent="1" source="6rMWS8Drp_TLHk2_PpBl-4" target="6rMWS8Drp_TLHk2_PpBl-6">
          <mxGeometry width="50" height="50" relative="1" as="geometry">
            <mxPoint x="749" y="412" as="sourcePoint" />
            <mxPoint x="749" y="540" as="targetPoint" />
          </mxGeometry>
        </mxCell>
        <mxCell id="NFwSeF7FNU52RPZo8lwg-43" value="2" style="edgeLabel;html=1;align=center;verticalAlign=middle;resizable=0;points=[];" vertex="1" connectable="0" parent="Lf_tgZg6ZEQAH7O0okFb-8">
          <mxGeometry x="0.7045" y="-1" relative="1" as="geometry">
            <mxPoint as="offset" />
          </mxGeometry>
        </mxCell>
        <mxCell id="NFwSeF7FNU52RPZo8lwg-44" value="1" style="edgeLabel;html=1;align=center;verticalAlign=middle;resizable=0;points=[];" vertex="1" connectable="0" parent="Lf_tgZg6ZEQAH7O0okFb-8">
          <mxGeometry x="-0.7625" relative="1" as="geometry">
            <mxPoint as="offset" />
          </mxGeometry>
        </mxCell>
        <mxCell id="Lf_tgZg6ZEQAH7O0okFb-9" value="" style="endArrow=none;html=1;rounded=0;entryX=0.145;entryY=0.145;entryDx=0;entryDy=0;entryPerimeter=0;exitX=0;exitY=0.5;exitDx=0;exitDy=0;exitPerimeter=0;" edge="1" parent="1" source="6rMWS8Drp_TLHk2_PpBl-2" target="6rMWS8Drp_TLHk2_PpBl-4">
          <mxGeometry width="50" height="50" relative="1" as="geometry">
            <mxPoint x="759" y="422" as="sourcePoint" />
            <mxPoint x="759" y="550" as="targetPoint" />
          </mxGeometry>
        </mxCell>
        <mxCell id="NFwSeF7FNU52RPZo8lwg-45" value="2" style="edgeLabel;html=1;align=center;verticalAlign=middle;resizable=0;points=[];" vertex="1" connectable="0" parent="Lf_tgZg6ZEQAH7O0okFb-9">
          <mxGeometry x="0.7119" y="-1" relative="1" as="geometry">
            <mxPoint x="1" as="offset" />
          </mxGeometry>
        </mxCell>
        <mxCell id="NFwSeF7FNU52RPZo8lwg-46" value="1" style="edgeLabel;html=1;align=center;verticalAlign=middle;resizable=0;points=[];" vertex="1" connectable="0" parent="Lf_tgZg6ZEQAH7O0okFb-9">
          <mxGeometry x="-0.8186" y="-3" relative="1" as="geometry">
            <mxPoint as="offset" />
          </mxGeometry>
        </mxCell>
        <mxCell id="NFwSeF7FNU52RPZo8lwg-1" value="" style="endArrow=none;html=1;rounded=0;entryX=0.5;entryY=0;entryDx=0;entryDy=0;entryPerimeter=0;exitX=0;exitY=0.5;exitDx=0;exitDy=0;exitPerimeter=0;" edge="1" parent="1" source="6rMWS8Drp_TLHk2_PpBl-1" target="6rMWS8Drp_TLHk2_PpBl-4">
          <mxGeometry width="50" height="50" relative="1" as="geometry">
            <mxPoint x="769" y="432" as="sourcePoint" />
            <mxPoint x="769" y="560" as="targetPoint" />
          </mxGeometry>
        </mxCell>
        <mxCell id="SYcdIXz-GX5F-zuZ-F0g-6" value="8" style="edgeLabel;html=1;align=center;verticalAlign=middle;resizable=0;points=[];" vertex="1" connectable="0" parent="NFwSeF7FNU52RPZo8lwg-1">
          <mxGeometry x="-0.9208" relative="1" as="geometry">
            <mxPoint as="offset" />
          </mxGeometry>
        </mxCell>
        <mxCell id="C-sewi9IMMfmouipeLku-1" value="3" style="edgeLabel;html=1;align=center;verticalAlign=middle;resizable=0;points=[];" vertex="1" connectable="0" parent="NFwSeF7FNU52RPZo8lwg-1">
          <mxGeometry x="0.9199" y="-1" relative="1" as="geometry">
            <mxPoint as="offset" />
          </mxGeometry>
        </mxCell>
        <mxCell id="NFwSeF7FNU52RPZo8lwg-2" value="" style="endArrow=none;html=1;rounded=0;entryX=0.5;entryY=0;entryDx=0;entryDy=0;entryPerimeter=0;exitX=0.145;exitY=0.855;exitDx=0;exitDy=0;exitPerimeter=0;" edge="1" parent="1" source="6rMWS8Drp_TLHk2_PpBl-1" target="6rMWS8Drp_TLHk2_PpBl-6">
          <mxGeometry width="50" height="50" relative="1" as="geometry">
            <mxPoint x="389" y="86" as="sourcePoint" />
            <mxPoint x="135" y="320" as="targetPoint" />
          </mxGeometry>
        </mxCell>
        <mxCell id="SYcdIXz-GX5F-zuZ-F0g-5" value="7" style="edgeLabel;html=1;align=center;verticalAlign=middle;resizable=0;points=[];" vertex="1" connectable="0" parent="NFwSeF7FNU52RPZo8lwg-2">
          <mxGeometry x="-0.9249" y="1" relative="1" as="geometry">
            <mxPoint as="offset" />
          </mxGeometry>
        </mxCell>
        <mxCell id="Z6_MU1gyXizfDSmgE5wM-26" value="4" style="edgeLabel;html=1;align=center;verticalAlign=middle;resizable=0;points=[];" vertex="1" connectable="0" parent="NFwSeF7FNU52RPZo8lwg-2">
          <mxGeometry x="0.9447" y="-2" relative="1" as="geometry">
            <mxPoint as="offset" />
          </mxGeometry>
        </mxCell>
        <mxCell id="NFwSeF7FNU52RPZo8lwg-3" value="" style="endArrow=none;html=1;rounded=0;entryX=0.145;entryY=0.145;entryDx=0;entryDy=0;entryPerimeter=0;exitX=0.5;exitY=1;exitDx=0;exitDy=0;exitPerimeter=0;" edge="1" parent="1" source="6rMWS8Drp_TLHk2_PpBl-1" target="6rMWS8Drp_TLHk2_PpBl-9">
          <mxGeometry width="50" height="50" relative="1" as="geometry">
            <mxPoint x="399" y="96" as="sourcePoint" />
            <mxPoint x="145" y="330" as="targetPoint" />
          </mxGeometry>
        </mxCell>
        <mxCell id="SYcdIXz-GX5F-zuZ-F0g-4" value="6" style="edgeLabel;html=1;align=center;verticalAlign=middle;resizable=0;points=[];" vertex="1" connectable="0" parent="NFwSeF7FNU52RPZo8lwg-3">
          <mxGeometry x="-0.9548" relative="1" as="geometry">
            <mxPoint as="offset" />
          </mxGeometry>
        </mxCell>
        <mxCell id="Z6_MU1gyXizfDSmgE5wM-21" value="5" style="edgeLabel;html=1;align=center;verticalAlign=middle;resizable=0;points=[];" vertex="1" connectable="0" parent="NFwSeF7FNU52RPZo8lwg-3">
          <mxGeometry x="0.9413" relative="1" as="geometry">
            <mxPoint as="offset" />
          </mxGeometry>
        </mxCell>
        <mxCell id="NFwSeF7FNU52RPZo8lwg-5" value="" style="endArrow=none;html=1;rounded=0;entryX=0.855;entryY=0.145;entryDx=0;entryDy=0;entryPerimeter=0;exitX=0.739;exitY=0.972;exitDx=0;exitDy=0;exitPerimeter=0;" edge="1" parent="1" source="6rMWS8Drp_TLHk2_PpBl-1" target="6rMWS8Drp_TLHk2_PpBl-8">
          <mxGeometry width="50" height="50" relative="1" as="geometry">
            <mxPoint x="419" y="116" as="sourcePoint" />
            <mxPoint x="165" y="350" as="targetPoint" />
          </mxGeometry>
        </mxCell>
        <mxCell id="SYcdIXz-GX5F-zuZ-F0g-3" value="5" style="edgeLabel;html=1;align=center;verticalAlign=middle;resizable=0;points=[];" vertex="1" connectable="0" parent="NFwSeF7FNU52RPZo8lwg-5">
          <mxGeometry x="-0.9366" y="-1" relative="1" as="geometry">
            <mxPoint as="offset" />
          </mxGeometry>
        </mxCell>
        <mxCell id="Z6_MU1gyXizfDSmgE5wM-17" value="7" style="edgeLabel;html=1;align=center;verticalAlign=middle;resizable=0;points=[];" vertex="1" connectable="0" parent="NFwSeF7FNU52RPZo8lwg-5">
          <mxGeometry x="0.9476" y="2" relative="1" as="geometry">
            <mxPoint as="offset" />
          </mxGeometry>
        </mxCell>
        <mxCell id="NFwSeF7FNU52RPZo8lwg-6" value="" style="endArrow=none;html=1;rounded=0;entryX=0.145;entryY=0.145;entryDx=0;entryDy=0;entryPerimeter=0;exitX=0.855;exitY=0.145;exitDx=0;exitDy=0;exitPerimeter=0;" edge="1" parent="1" source="6rMWS8Drp_TLHk2_PpBl-2" target="6rMWS8Drp_TLHk2_PpBl-3">
          <mxGeometry width="50" height="50" relative="1" as="geometry">
            <mxPoint x="390" y="420" as="sourcePoint" />
            <mxPoint x="440" y="370" as="targetPoint" />
          </mxGeometry>
        </mxCell>
        <mxCell id="ZEranj9GZoLr50oGvENA-7" value="8" style="edgeLabel;html=1;align=center;verticalAlign=middle;resizable=0;points=[];" vertex="1" connectable="0" parent="NFwSeF7FNU52RPZo8lwg-6">
          <mxGeometry x="0.8982" relative="1" as="geometry">
            <mxPoint as="offset" />
          </mxGeometry>
        </mxCell>
        <mxCell id="C-sewi9IMMfmouipeLku-7" value="3" style="edgeLabel;html=1;align=center;verticalAlign=middle;resizable=0;points=[];" vertex="1" connectable="0" parent="NFwSeF7FNU52RPZo8lwg-6">
          <mxGeometry x="-0.953" y="-2" relative="1" as="geometry">
            <mxPoint as="offset" />
          </mxGeometry>
        </mxCell>
        <mxCell id="NFwSeF7FNU52RPZo8lwg-7" value="" style="endArrow=none;html=1;rounded=0;entryX=0;entryY=0.5;entryDx=0;entryDy=0;entryPerimeter=0;exitX=0.855;exitY=0.145;exitDx=0;exitDy=0;exitPerimeter=0;" edge="1" parent="1" source="6rMWS8Drp_TLHk2_PpBl-4" target="6rMWS8Drp_TLHk2_PpBl-3">
          <mxGeometry width="50" height="50" relative="1" as="geometry">
            <mxPoint x="159" y="150" as="sourcePoint" />
            <mxPoint x="670" y="150" as="targetPoint" />
          </mxGeometry>
        </mxCell>
        <mxCell id="ZEranj9GZoLr50oGvENA-6" value="7" style="edgeLabel;html=1;align=center;verticalAlign=middle;resizable=0;points=[];" vertex="1" connectable="0" parent="NFwSeF7FNU52RPZo8lwg-7">
          <mxGeometry x="0.9418" y="2" relative="1" as="geometry">
            <mxPoint as="offset" />
          </mxGeometry>
        </mxCell>
        <mxCell id="C-sewi9IMMfmouipeLku-2" value="4" style="edgeLabel;html=1;align=center;verticalAlign=middle;resizable=0;points=[];" vertex="1" connectable="0" parent="NFwSeF7FNU52RPZo8lwg-7">
          <mxGeometry x="-0.9619" y="-1" relative="1" as="geometry">
            <mxPoint y="-1" as="offset" />
          </mxGeometry>
        </mxCell>
        <mxCell id="NFwSeF7FNU52RPZo8lwg-8" value="" style="endArrow=none;html=1;rounded=0;entryX=0.145;entryY=0.855;entryDx=0;entryDy=0;entryPerimeter=0;exitX=0.855;exitY=0.145;exitDx=0;exitDy=0;exitPerimeter=0;" edge="1" parent="1" source="6rMWS8Drp_TLHk2_PpBl-6" target="6rMWS8Drp_TLHk2_PpBl-3">
          <mxGeometry width="50" height="50" relative="1" as="geometry">
            <mxPoint x="169" y="160" as="sourcePoint" />
            <mxPoint x="680" y="160" as="targetPoint" />
          </mxGeometry>
        </mxCell>
        <mxCell id="ZEranj9GZoLr50oGvENA-5" value="6" style="edgeLabel;html=1;align=center;verticalAlign=middle;resizable=0;points=[];" vertex="1" connectable="0" parent="NFwSeF7FNU52RPZo8lwg-8">
          <mxGeometry x="0.9483" y="-1" relative="1" as="geometry">
            <mxPoint x="1" as="offset" />
          </mxGeometry>
        </mxCell>
        <mxCell id="Z6_MU1gyXizfDSmgE5wM-27" value="5" style="edgeLabel;html=1;align=center;verticalAlign=middle;resizable=0;points=[];" vertex="1" connectable="0" parent="NFwSeF7FNU52RPZo8lwg-8">
          <mxGeometry x="-0.9505" y="-2" relative="1" as="geometry">
            <mxPoint as="offset" />
          </mxGeometry>
        </mxCell>
        <mxCell id="NFwSeF7FNU52RPZo8lwg-9" value="" style="endArrow=none;html=1;rounded=0;entryX=0.5;entryY=1;entryDx=0;entryDy=0;entryPerimeter=0;exitX=0.5;exitY=0;exitDx=0;exitDy=0;exitPerimeter=0;" edge="1" parent="1" source="6rMWS8Drp_TLHk2_PpBl-9" target="6rMWS8Drp_TLHk2_PpBl-3">
          <mxGeometry width="50" height="50" relative="1" as="geometry">
            <mxPoint x="179" y="170" as="sourcePoint" />
            <mxPoint x="690" y="170" as="targetPoint" />
          </mxGeometry>
        </mxCell>
        <mxCell id="ZEranj9GZoLr50oGvENA-3" value="5" style="edgeLabel;html=1;align=center;verticalAlign=middle;resizable=0;points=[];" vertex="1" connectable="0" parent="NFwSeF7FNU52RPZo8lwg-9">
          <mxGeometry x="0.9485" y="-3" relative="1" as="geometry">
            <mxPoint as="offset" />
          </mxGeometry>
        </mxCell>
        <mxCell id="Z6_MU1gyXizfDSmgE5wM-22" value="6" style="edgeLabel;html=1;align=center;verticalAlign=middle;resizable=0;points=[];" vertex="1" connectable="0" parent="NFwSeF7FNU52RPZo8lwg-9">
          <mxGeometry x="-0.9153" relative="1" as="geometry">
            <mxPoint as="offset" />
          </mxGeometry>
        </mxCell>
        <mxCell id="NFwSeF7FNU52RPZo8lwg-10" value="" style="endArrow=none;html=1;rounded=0;entryX=0.855;entryY=0.855;entryDx=0;entryDy=0;entryPerimeter=0;exitX=0.855;exitY=0.145;exitDx=0;exitDy=0;exitPerimeter=0;" edge="1" parent="1" source="6rMWS8Drp_TLHk2_PpBl-7" target="6rMWS8Drp_TLHk2_PpBl-3">
          <mxGeometry width="50" height="50" relative="1" as="geometry">
            <mxPoint x="189" y="180" as="sourcePoint" />
            <mxPoint x="700" y="180" as="targetPoint" />
          </mxGeometry>
        </mxCell>
        <mxCell id="ZEranj9GZoLr50oGvENA-1" value="3" style="edgeLabel;html=1;align=center;verticalAlign=middle;resizable=0;points=[];" vertex="1" connectable="0" parent="NFwSeF7FNU52RPZo8lwg-10">
          <mxGeometry x="0.9195" y="-3" relative="1" as="geometry">
            <mxPoint as="offset" />
          </mxGeometry>
        </mxCell>
        <mxCell id="Z6_MU1gyXizfDSmgE5wM-12" value="8" style="edgeLabel;html=1;align=center;verticalAlign=middle;resizable=0;points=[];" vertex="1" connectable="0" parent="NFwSeF7FNU52RPZo8lwg-10">
          <mxGeometry x="-0.913" relative="1" as="geometry">
            <mxPoint as="offset" />
          </mxGeometry>
        </mxCell>
        <mxCell id="NFwSeF7FNU52RPZo8lwg-11" value="" style="endArrow=none;html=1;rounded=0;exitX=0.5;exitY=0;exitDx=0;exitDy=0;exitPerimeter=0;" edge="1" parent="1" source="6rMWS8Drp_TLHk2_PpBl-8">
          <mxGeometry width="50" height="50" relative="1" as="geometry">
            <mxPoint x="199" y="190" as="sourcePoint" />
            <mxPoint x="700" y="210" as="targetPoint" />
          </mxGeometry>
        </mxCell>
        <mxCell id="ZEranj9GZoLr50oGvENA-2" value="4" style="edgeLabel;html=1;align=center;verticalAlign=middle;resizable=0;points=[];" vertex="1" connectable="0" parent="NFwSeF7FNU52RPZo8lwg-11">
          <mxGeometry x="0.9318" y="-2" relative="1" as="geometry">
            <mxPoint as="offset" />
          </mxGeometry>
        </mxCell>
        <mxCell id="Z6_MU1gyXizfDSmgE5wM-16" value="6" style="edgeLabel;html=1;align=center;verticalAlign=middle;resizable=0;points=[];" vertex="1" connectable="0" parent="NFwSeF7FNU52RPZo8lwg-11">
          <mxGeometry x="-0.9296" y="1" relative="1" as="geometry">
            <mxPoint as="offset" />
          </mxGeometry>
        </mxCell>
        <mxCell id="NFwSeF7FNU52RPZo8lwg-12" value="" style="endArrow=none;html=1;rounded=0;entryX=0.5;entryY=0;entryDx=0;entryDy=0;entryPerimeter=0;exitX=1;exitY=0.5;exitDx=0;exitDy=0;exitPerimeter=0;" edge="1" parent="1" source="6rMWS8Drp_TLHk2_PpBl-2" target="6rMWS8Drp_TLHk2_PpBl-5">
          <mxGeometry width="50" height="50" relative="1" as="geometry">
            <mxPoint x="390" y="420" as="sourcePoint" />
            <mxPoint x="440" y="370" as="targetPoint" />
          </mxGeometry>
        </mxCell>
        <mxCell id="Z6_MU1gyXizfDSmgE5wM-6" value="8" style="edgeLabel;html=1;align=center;verticalAlign=middle;resizable=0;points=[];" vertex="1" connectable="0" parent="NFwSeF7FNU52RPZo8lwg-12">
          <mxGeometry x="0.9377" y="2" relative="1" as="geometry">
            <mxPoint as="offset" />
          </mxGeometry>
        </mxCell>
        <mxCell id="C-sewi9IMMfmouipeLku-8" value="4" style="edgeLabel;html=1;align=center;verticalAlign=middle;resizable=0;points=[];" vertex="1" connectable="0" parent="NFwSeF7FNU52RPZo8lwg-12">
          <mxGeometry x="-0.9525" y="-2" relative="1" as="geometry">
            <mxPoint as="offset" />
          </mxGeometry>
        </mxCell>
        <mxCell id="NFwSeF7FNU52RPZo8lwg-13" value="" style="endArrow=none;html=1;rounded=0;entryX=0;entryY=0.5;entryDx=0;entryDy=0;entryPerimeter=0;exitX=1;exitY=0.5;exitDx=0;exitDy=0;exitPerimeter=0;" edge="1" parent="1" source="6rMWS8Drp_TLHk2_PpBl-4" target="6rMWS8Drp_TLHk2_PpBl-5">
          <mxGeometry width="50" height="50" relative="1" as="geometry">
            <mxPoint x="169" y="176" as="sourcePoint" />
            <mxPoint x="775" y="320" as="targetPoint" />
          </mxGeometry>
        </mxCell>
        <mxCell id="Z6_MU1gyXizfDSmgE5wM-4" value="6" style="edgeLabel;html=1;align=center;verticalAlign=middle;resizable=0;points=[];" vertex="1" connectable="0" parent="NFwSeF7FNU52RPZo8lwg-13">
          <mxGeometry x="0.8906" y="2" relative="1" as="geometry">
            <mxPoint as="offset" />
          </mxGeometry>
        </mxCell>
        <mxCell id="C-sewi9IMMfmouipeLku-3" value="5" style="edgeLabel;html=1;align=center;verticalAlign=middle;resizable=0;points=[];" vertex="1" connectable="0" parent="NFwSeF7FNU52RPZo8lwg-13">
          <mxGeometry x="-0.9437" y="-2" relative="1" as="geometry">
            <mxPoint as="offset" />
          </mxGeometry>
        </mxCell>
        <mxCell id="NFwSeF7FNU52RPZo8lwg-14" value="" style="endArrow=none;html=1;rounded=0;entryX=0.5;entryY=1;entryDx=0;entryDy=0;entryPerimeter=0;exitX=1;exitY=0.5;exitDx=0;exitDy=0;exitPerimeter=0;" edge="1" parent="1" source="6rMWS8Drp_TLHk2_PpBl-8" target="6rMWS8Drp_TLHk2_PpBl-5">
          <mxGeometry width="50" height="50" relative="1" as="geometry">
            <mxPoint x="179" y="186" as="sourcePoint" />
            <mxPoint x="785" y="330" as="targetPoint" />
          </mxGeometry>
        </mxCell>
        <mxCell id="Z6_MU1gyXizfDSmgE5wM-1" value="3" style="edgeLabel;html=1;align=center;verticalAlign=middle;resizable=0;points=[];" vertex="1" connectable="0" parent="NFwSeF7FNU52RPZo8lwg-14">
          <mxGeometry x="0.8854" y="1" relative="1" as="geometry">
            <mxPoint as="offset" />
          </mxGeometry>
        </mxCell>
        <mxCell id="Z6_MU1gyXizfDSmgE5wM-18" value="8" style="edgeLabel;html=1;align=center;verticalAlign=middle;resizable=0;points=[];" vertex="1" connectable="0" parent="NFwSeF7FNU52RPZo8lwg-14">
          <mxGeometry x="-0.8838" y="-1" relative="1" as="geometry">
            <mxPoint as="offset" />
          </mxGeometry>
        </mxCell>
        <mxCell id="NFwSeF7FNU52RPZo8lwg-15" value="" style="endArrow=none;html=1;rounded=0;entryX=0.145;entryY=0.855;entryDx=0;entryDy=0;entryPerimeter=0;exitX=1;exitY=0.5;exitDx=0;exitDy=0;exitPerimeter=0;" edge="1" parent="1" source="6rMWS8Drp_TLHk2_PpBl-9" target="6rMWS8Drp_TLHk2_PpBl-5">
          <mxGeometry width="50" height="50" relative="1" as="geometry">
            <mxPoint x="189" y="196" as="sourcePoint" />
            <mxPoint x="795" y="340" as="targetPoint" />
          </mxGeometry>
        </mxCell>
        <mxCell id="Z6_MU1gyXizfDSmgE5wM-2" value="4" style="edgeLabel;html=1;align=center;verticalAlign=middle;resizable=0;points=[];" vertex="1" connectable="0" parent="NFwSeF7FNU52RPZo8lwg-15">
          <mxGeometry x="0.9331" y="-1" relative="1" as="geometry">
            <mxPoint x="-1" as="offset" />
          </mxGeometry>
        </mxCell>
        <mxCell id="Z6_MU1gyXizfDSmgE5wM-24" value="8" style="edgeLabel;html=1;align=center;verticalAlign=middle;resizable=0;points=[];" vertex="1" connectable="0" parent="NFwSeF7FNU52RPZo8lwg-15">
          <mxGeometry x="-0.9469" y="-1" relative="1" as="geometry">
            <mxPoint as="offset" />
          </mxGeometry>
        </mxCell>
        <mxCell id="NFwSeF7FNU52RPZo8lwg-16" value="" style="endArrow=none;html=1;rounded=0;exitX=1;exitY=0.5;exitDx=0;exitDy=0;exitPerimeter=0;" edge="1" parent="1" source="6rMWS8Drp_TLHk2_PpBl-6">
          <mxGeometry width="50" height="50" relative="1" as="geometry">
            <mxPoint x="199" y="206" as="sourcePoint" />
            <mxPoint x="720" y="360" as="targetPoint" />
          </mxGeometry>
        </mxCell>
        <mxCell id="Z6_MU1gyXizfDSmgE5wM-28" value="6" style="edgeLabel;html=1;align=center;verticalAlign=middle;resizable=0;points=[];" vertex="1" connectable="0" parent="NFwSeF7FNU52RPZo8lwg-16">
          <mxGeometry x="-0.9237" y="-3" relative="1" as="geometry">
            <mxPoint as="offset" />
          </mxGeometry>
        </mxCell>
        <mxCell id="NFwSeF7FNU52RPZo8lwg-17" value="" style="endArrow=none;html=1;rounded=0;entryX=0.145;entryY=0.145;entryDx=0;entryDy=0;entryPerimeter=0;exitX=1;exitY=0.5;exitDx=0;exitDy=0;exitPerimeter=0;" edge="1" parent="1" source="6rMWS8Drp_TLHk2_PpBl-1" target="6rMWS8Drp_TLHk2_PpBl-5">
          <mxGeometry width="50" height="50" relative="1" as="geometry">
            <mxPoint x="209" y="216" as="sourcePoint" />
            <mxPoint x="815" y="360" as="targetPoint" />
          </mxGeometry>
        </mxCell>
        <mxCell id="SYcdIXz-GX5F-zuZ-F0g-1" value="3" style="edgeLabel;html=1;align=center;verticalAlign=middle;resizable=0;points=[];" vertex="1" connectable="0" parent="NFwSeF7FNU52RPZo8lwg-17">
          <mxGeometry x="-0.9139" y="1" relative="1" as="geometry">
            <mxPoint as="offset" />
          </mxGeometry>
        </mxCell>
        <mxCell id="Z6_MU1gyXizfDSmgE5wM-5" value="7" style="edgeLabel;html=1;align=center;verticalAlign=middle;resizable=0;points=[];" vertex="1" connectable="0" parent="NFwSeF7FNU52RPZo8lwg-17">
          <mxGeometry x="0.8896" y="-1" relative="1" as="geometry">
            <mxPoint as="offset" />
          </mxGeometry>
        </mxCell>
        <mxCell id="NFwSeF7FNU52RPZo8lwg-18" value="" style="endArrow=none;html=1;rounded=0;entryX=0.5;entryY=0;entryDx=0;entryDy=0;entryPerimeter=0;exitX=0.855;exitY=0.855;exitDx=0;exitDy=0;exitPerimeter=0;" edge="1" parent="1" source="6rMWS8Drp_TLHk2_PpBl-1" target="6rMWS8Drp_TLHk2_PpBl-7">
          <mxGeometry width="50" height="50" relative="1" as="geometry">
            <mxPoint x="219" y="226" as="sourcePoint" />
            <mxPoint x="825" y="370" as="targetPoint" />
          </mxGeometry>
        </mxCell>
        <mxCell id="SYcdIXz-GX5F-zuZ-F0g-2" value="4" style="edgeLabel;html=1;align=center;verticalAlign=middle;resizable=0;points=[];" vertex="1" connectable="0" parent="NFwSeF7FNU52RPZo8lwg-18">
          <mxGeometry x="-0.9307" y="-2" relative="1" as="geometry">
            <mxPoint as="offset" />
          </mxGeometry>
        </mxCell>
        <mxCell id="Z6_MU1gyXizfDSmgE5wM-11" value="7" style="edgeLabel;html=1;align=center;verticalAlign=middle;resizable=0;points=[];" vertex="1" connectable="0" parent="NFwSeF7FNU52RPZo8lwg-18">
          <mxGeometry x="0.9311" y="1" relative="1" as="geometry">
            <mxPoint as="offset" />
          </mxGeometry>
        </mxCell>
        <mxCell id="NFwSeF7FNU52RPZo8lwg-19" value="" style="endArrow=none;html=1;rounded=0;entryX=0.145;entryY=0.145;entryDx=0;entryDy=0;entryPerimeter=0;exitX=0.855;exitY=0.855;exitDx=0;exitDy=0;exitPerimeter=0;" edge="1" parent="1" source="6rMWS8Drp_TLHk2_PpBl-2" target="6rMWS8Drp_TLHk2_PpBl-7">
          <mxGeometry width="50" height="50" relative="1" as="geometry">
            <mxPoint x="390" y="420" as="sourcePoint" />
            <mxPoint x="440" y="370" as="targetPoint" />
          </mxGeometry>
        </mxCell>
        <mxCell id="Z6_MU1gyXizfDSmgE5wM-10" value="6" style="edgeLabel;html=1;align=center;verticalAlign=middle;resizable=0;points=[];" vertex="1" connectable="0" parent="NFwSeF7FNU52RPZo8lwg-19">
          <mxGeometry x="0.9481" relative="1" as="geometry">
            <mxPoint y="-1" as="offset" />
          </mxGeometry>
        </mxCell>
        <mxCell id="C-sewi9IMMfmouipeLku-9" value="5" style="edgeLabel;html=1;align=center;verticalAlign=middle;resizable=0;points=[];" vertex="1" connectable="0" parent="NFwSeF7FNU52RPZo8lwg-19">
          <mxGeometry x="-0.9608" y="2" relative="1" as="geometry">
            <mxPoint as="offset" />
          </mxGeometry>
        </mxCell>
        <mxCell id="NFwSeF7FNU52RPZo8lwg-20" value="" style="endArrow=none;html=1;rounded=0;entryX=0;entryY=0.5;entryDx=0;entryDy=0;entryPerimeter=0;exitX=0.855;exitY=0.855;exitDx=0;exitDy=0;exitPerimeter=0;" edge="1" parent="1" source="6rMWS8Drp_TLHk2_PpBl-4" target="6rMWS8Drp_TLHk2_PpBl-7">
          <mxGeometry width="50" height="50" relative="1" as="geometry">
            <mxPoint x="159" y="202" as="sourcePoint" />
            <mxPoint x="670" y="510" as="targetPoint" />
          </mxGeometry>
        </mxCell>
        <mxCell id="Z6_MU1gyXizfDSmgE5wM-9" value="5" style="edgeLabel;html=1;align=center;verticalAlign=middle;resizable=0;points=[];" vertex="1" connectable="0" parent="NFwSeF7FNU52RPZo8lwg-20">
          <mxGeometry x="0.9483" y="-1" relative="1" as="geometry">
            <mxPoint as="offset" />
          </mxGeometry>
        </mxCell>
        <mxCell id="C-sewi9IMMfmouipeLku-4" value="6" style="edgeLabel;html=1;align=center;verticalAlign=middle;resizable=0;points=[];" vertex="1" connectable="0" parent="NFwSeF7FNU52RPZo8lwg-20">
          <mxGeometry x="-0.9206" y="-2" relative="1" as="geometry">
            <mxPoint as="offset" />
          </mxGeometry>
        </mxCell>
        <mxCell id="NFwSeF7FNU52RPZo8lwg-21" value="" style="endArrow=none;html=1;rounded=0;exitX=0.855;exitY=0.855;exitDx=0;exitDy=0;exitPerimeter=0;" edge="1" parent="1" source="6rMWS8Drp_TLHk2_PpBl-6">
          <mxGeometry width="50" height="50" relative="1" as="geometry">
            <mxPoint x="169" y="212" as="sourcePoint" />
            <mxPoint x="660" y="552" as="targetPoint" />
          </mxGeometry>
        </mxCell>
        <mxCell id="Z6_MU1gyXizfDSmgE5wM-8" value="4" style="edgeLabel;html=1;align=center;verticalAlign=middle;resizable=0;points=[];" vertex="1" connectable="0" parent="NFwSeF7FNU52RPZo8lwg-21">
          <mxGeometry x="0.9285" relative="1" as="geometry">
            <mxPoint as="offset" />
          </mxGeometry>
        </mxCell>
        <mxCell id="Z6_MU1gyXizfDSmgE5wM-29" value="7" style="edgeLabel;html=1;align=center;verticalAlign=middle;resizable=0;points=[];" vertex="1" connectable="0" parent="NFwSeF7FNU52RPZo8lwg-21">
          <mxGeometry x="-0.9512" y="-3" relative="1" as="geometry">
            <mxPoint as="offset" />
          </mxGeometry>
        </mxCell>
        <mxCell id="NFwSeF7FNU52RPZo8lwg-22" value="7" style="endArrow=none;html=1;rounded=0;entryX=0.5;entryY=1;entryDx=0;entryDy=0;entryPerimeter=0;exitX=0.855;exitY=0.145;exitDx=0;exitDy=0;exitPerimeter=0;" edge="1" parent="1" source="6rMWS8Drp_TLHk2_PpBl-9" target="6rMWS8Drp_TLHk2_PpBl-7">
          <mxGeometry width="50" height="50" relative="1" as="geometry">
            <mxPoint x="179" y="222" as="sourcePoint" />
            <mxPoint x="690" y="530" as="targetPoint" />
          </mxGeometry>
        </mxCell>
        <mxCell id="Z6_MU1gyXizfDSmgE5wM-7" value="3" style="edgeLabel;html=1;align=center;verticalAlign=middle;resizable=0;points=[];" vertex="1" connectable="0" parent="NFwSeF7FNU52RPZo8lwg-22">
          <mxGeometry x="0.9018" y="-2" relative="1" as="geometry">
            <mxPoint as="offset" />
          </mxGeometry>
        </mxCell>
        <mxCell id="Z6_MU1gyXizfDSmgE5wM-23" value="7" style="edgeLabel;html=1;align=center;verticalAlign=middle;resizable=0;points=[];" vertex="1" connectable="0" parent="NFwSeF7FNU52RPZo8lwg-22">
          <mxGeometry x="-0.9437" y="-1" relative="1" as="geometry">
            <mxPoint as="offset" />
          </mxGeometry>
        </mxCell>
        <mxCell id="NFwSeF7FNU52RPZo8lwg-23" value="5" style="endArrow=none;html=1;rounded=0;exitX=0.145;exitY=0.145;exitDx=0;exitDy=0;exitPerimeter=0;entryX=0.5;entryY=1;entryDx=0;entryDy=0;entryPerimeter=0;" edge="1" parent="1" source="6rMWS8Drp_TLHk2_PpBl-8" target="6rMWS8Drp_TLHk2_PpBl-2">
          <mxGeometry width="50" height="50" relative="1" as="geometry">
            <mxPoint x="390" y="420" as="sourcePoint" />
            <mxPoint x="440" y="370" as="targetPoint" />
          </mxGeometry>
        </mxCell>
        <mxCell id="Z6_MU1gyXizfDSmgE5wM-15" value="5" style="edgeLabel;html=1;align=center;verticalAlign=middle;resizable=0;points=[];" vertex="1" connectable="0" parent="NFwSeF7FNU52RPZo8lwg-23">
          <mxGeometry x="-0.9395" y="-2" relative="1" as="geometry">
            <mxPoint as="offset" />
          </mxGeometry>
        </mxCell>
        <mxCell id="C-sewi9IMMfmouipeLku-10" value="6" style="edgeLabel;html=1;align=center;verticalAlign=middle;resizable=0;points=[];" vertex="1" connectable="0" parent="NFwSeF7FNU52RPZo8lwg-23">
          <mxGeometry x="0.9324" relative="1" as="geometry">
            <mxPoint as="offset" />
          </mxGeometry>
        </mxCell>
        <mxCell id="NFwSeF7FNU52RPZo8lwg-24" value="" style="endArrow=none;html=1;rounded=0;entryX=0;entryY=0.5;entryDx=0;entryDy=0;entryPerimeter=0;exitX=0.5;exitY=1;exitDx=0;exitDy=0;exitPerimeter=0;" edge="1" parent="1" source="6rMWS8Drp_TLHk2_PpBl-4" target="6rMWS8Drp_TLHk2_PpBl-8">
          <mxGeometry width="50" height="50" relative="1" as="geometry">
            <mxPoint x="189" y="232" as="sourcePoint" />
            <mxPoint x="700" y="540" as="targetPoint" />
          </mxGeometry>
        </mxCell>
        <mxCell id="Z6_MU1gyXizfDSmgE5wM-14" value="4" style="edgeLabel;html=1;align=center;verticalAlign=middle;resizable=0;points=[];" vertex="1" connectable="0" parent="NFwSeF7FNU52RPZo8lwg-24">
          <mxGeometry x="0.9394" y="4" relative="1" as="geometry">
            <mxPoint as="offset" />
          </mxGeometry>
        </mxCell>
        <mxCell id="C-sewi9IMMfmouipeLku-5" value="7" style="edgeLabel;html=1;align=center;verticalAlign=middle;resizable=0;points=[];" vertex="1" connectable="0" parent="NFwSeF7FNU52RPZo8lwg-24">
          <mxGeometry x="-0.9135" y="3" relative="1" as="geometry">
            <mxPoint x="-1" as="offset" />
          </mxGeometry>
        </mxCell>
        <mxCell id="NFwSeF7FNU52RPZo8lwg-25" value="" style="endArrow=none;html=1;rounded=0;entryX=0.145;entryY=0.855;entryDx=0;entryDy=0;entryPerimeter=0;exitX=0.5;exitY=1;exitDx=0;exitDy=0;exitPerimeter=0;" edge="1" parent="1" source="6rMWS8Drp_TLHk2_PpBl-6" target="6rMWS8Drp_TLHk2_PpBl-8">
          <mxGeometry width="50" height="50" relative="1" as="geometry">
            <mxPoint x="390" y="420" as="sourcePoint" />
            <mxPoint x="440" y="370" as="targetPoint" />
          </mxGeometry>
        </mxCell>
        <mxCell id="Z6_MU1gyXizfDSmgE5wM-13" value="3" style="edgeLabel;html=1;align=center;verticalAlign=middle;resizable=0;points=[];" vertex="1" connectable="0" parent="NFwSeF7FNU52RPZo8lwg-25">
          <mxGeometry x="0.9135" y="1" relative="1" as="geometry">
            <mxPoint as="offset" />
          </mxGeometry>
        </mxCell>
        <mxCell id="Z6_MU1gyXizfDSmgE5wM-30" value="8" style="edgeLabel;html=1;align=center;verticalAlign=middle;resizable=0;points=[];" vertex="1" connectable="0" parent="NFwSeF7FNU52RPZo8lwg-25">
          <mxGeometry x="-0.8891" relative="1" as="geometry">
            <mxPoint x="-1" as="offset" />
          </mxGeometry>
        </mxCell>
        <mxCell id="NFwSeF7FNU52RPZo8lwg-26" value="" style="endArrow=none;html=1;rounded=0;exitX=0;exitY=0.5;exitDx=0;exitDy=0;exitPerimeter=0;" edge="1" parent="1" source="6rMWS8Drp_TLHk2_PpBl-9">
          <mxGeometry width="50" height="50" relative="1" as="geometry">
            <mxPoint x="390" y="420" as="sourcePoint" />
            <mxPoint x="110" y="210" as="targetPoint" />
          </mxGeometry>
        </mxCell>
        <mxCell id="Z6_MU1gyXizfDSmgE5wM-20" value="4" style="edgeLabel;html=1;align=center;verticalAlign=middle;resizable=0;points=[];" vertex="1" connectable="0" parent="NFwSeF7FNU52RPZo8lwg-26">
          <mxGeometry x="-0.9051" y="-2" relative="1" as="geometry">
            <mxPoint as="offset" />
          </mxGeometry>
        </mxCell>
        <mxCell id="C-sewi9IMMfmouipeLku-14" value="7" style="edgeLabel;html=1;align=center;verticalAlign=middle;resizable=0;points=[];" vertex="1" connectable="0" parent="NFwSeF7FNU52RPZo8lwg-26">
          <mxGeometry x="0.7644" y="-2" relative="1" as="geometry">
            <mxPoint x="-1" as="offset" />
          </mxGeometry>
        </mxCell>
        <mxCell id="NFwSeF7FNU52RPZo8lwg-27" value="" style="endArrow=none;html=1;rounded=0;entryX=0.5;entryY=1;entryDx=0;entryDy=0;entryPerimeter=0;" edge="1" parent="1" target="6rMWS8Drp_TLHk2_PpBl-4">
          <mxGeometry width="50" height="50" relative="1" as="geometry">
            <mxPoint x="230" y="660" as="sourcePoint" />
            <mxPoint x="110" y="202" as="targetPoint" />
          </mxGeometry>
        </mxCell>
        <mxCell id="Z6_MU1gyXizfDSmgE5wM-19" value="3" style="edgeLabel;html=1;align=center;verticalAlign=middle;resizable=0;points=[];" vertex="1" connectable="0" parent="NFwSeF7FNU52RPZo8lwg-27">
          <mxGeometry x="-0.8747" y="-1" relative="1" as="geometry">
            <mxPoint as="offset" />
          </mxGeometry>
        </mxCell>
        <mxCell id="C-sewi9IMMfmouipeLku-6" value="8" style="edgeLabel;html=1;align=center;verticalAlign=middle;resizable=0;points=[];" vertex="1" connectable="0" parent="NFwSeF7FNU52RPZo8lwg-27">
          <mxGeometry x="0.866" y="3" relative="1" as="geometry">
            <mxPoint as="offset" />
          </mxGeometry>
        </mxCell>
        <mxCell id="NFwSeF7FNU52RPZo8lwg-28" value="" style="endArrow=none;html=1;rounded=0;exitX=0.145;exitY=0.145;exitDx=0;exitDy=0;exitPerimeter=0;entryX=0.145;entryY=0.855;entryDx=0;entryDy=0;entryPerimeter=0;" edge="1" parent="1" source="6rMWS8Drp_TLHk2_PpBl-6" target="6rMWS8Drp_TLHk2_PpBl-2">
          <mxGeometry width="50" height="50" relative="1" as="geometry">
            <mxPoint x="260" y="686" as="sourcePoint" />
            <mxPoint x="110" y="210" as="targetPoint" />
          </mxGeometry>
        </mxCell>
        <mxCell id="Z6_MU1gyXizfDSmgE5wM-25" value="3" style="edgeLabel;html=1;align=center;verticalAlign=middle;resizable=0;points=[];" vertex="1" connectable="0" parent="NFwSeF7FNU52RPZo8lwg-28">
          <mxGeometry x="-0.9094" y="-2" relative="1" as="geometry">
            <mxPoint as="offset" />
          </mxGeometry>
        </mxCell>
        <mxCell id="C-sewi9IMMfmouipeLku-15" value="8" style="edgeLabel;html=1;align=center;verticalAlign=middle;resizable=0;points=[];" vertex="1" connectable="0" parent="NFwSeF7FNU52RPZo8lwg-28">
          <mxGeometry x="0.6737" relative="1" as="geometry">
            <mxPoint as="offset" />
          </mxGeometry>
        </mxCell>
        <mxCell id="Z6_MU1gyXizfDSmgE5wM-3" value="5" style="text;html=1;align=center;verticalAlign=middle;resizable=0;points=[];autosize=1;strokeColor=none;fillColor=none;" vertex="1" parent="1">
          <mxGeometry x="705" y="348" width="30" height="30" as="geometry" />
        </mxCell>
        <mxCell id="C-sewi9IMMfmouipeLku-16" value="ceos1" style="text;html=1;align=center;verticalAlign=middle;resizable=0;points=[];autosize=1;strokeColor=none;fillColor=none;" vertex="1" parent="1">
          <mxGeometry x="380" y="8" width="60" height="30" as="geometry" />
        </mxCell>
        <mxCell id="C-sewi9IMMfmouipeLku-18" value="ceos2" style="text;html=1;align=center;verticalAlign=middle;resizable=0;points=[];autosize=1;strokeColor=none;fillColor=none;" vertex="1" parent="1">
          <mxGeometry x="739" y="112" width="60" height="30" as="geometry" />
        </mxCell>
        <mxCell id="C-sewi9IMMfmouipeLku-19" value="ceos3" style="text;html=1;align=center;verticalAlign=middle;resizable=0;points=[];autosize=1;strokeColor=none;fillColor=none;" vertex="1" parent="1">
          <mxGeometry x="840" y="331" width="60" height="30" as="geometry" />
        </mxCell>
        <mxCell id="C-sewi9IMMfmouipeLku-20" value="ceos4" style="text;html=1;align=center;verticalAlign=middle;resizable=0;points=[];autosize=1;strokeColor=none;fillColor=none;" vertex="1" parent="1">
          <mxGeometry x="767" y="554.5" width="60" height="30" as="geometry" />
        </mxCell>
        <mxCell id="C-sewi9IMMfmouipeLku-21" value="ceos5" style="text;html=1;align=center;verticalAlign=middle;resizable=0;points=[];autosize=1;strokeColor=none;fillColor=none;" vertex="1" parent="1">
          <mxGeometry x="590" y="710" width="60" height="30" as="geometry" />
        </mxCell>
        <mxCell id="C-sewi9IMMfmouipeLku-22" value="ceos6" style="text;html=1;align=center;verticalAlign=middle;resizable=0;points=[];autosize=1;strokeColor=none;fillColor=none;" vertex="1" parent="1">
          <mxGeometry x="200" y="710" width="60" height="30" as="geometry" />
        </mxCell>
        <mxCell id="C-sewi9IMMfmouipeLku-23" value="ceos7" style="text;html=1;align=center;verticalAlign=middle;resizable=0;points=[];autosize=1;strokeColor=none;fillColor=none;" vertex="1" parent="1">
          <mxGeometry x="-30" y="572" width="60" height="30" as="geometry" />
        </mxCell>
        <mxCell id="C-sewi9IMMfmouipeLku-24" value="ceos8" style="text;html=1;align=center;verticalAlign=middle;resizable=0;points=[];autosize=1;strokeColor=none;fillColor=none;" vertex="1" parent="1">
          <mxGeometry x="-100" y="331" width="60" height="30" as="geometry" />
        </mxCell>
        <mxCell id="C-sewi9IMMfmouipeLku-25" value="ceos9" style="text;html=1;align=center;verticalAlign=middle;resizable=0;points=[];autosize=1;strokeColor=none;fillColor=none;" vertex="1" parent="1">
          <mxGeometry x="-70" y="130" width="60" height="30" as="geometry" />
        </mxCell>
      </root>
    </mxGraphModel>
  </diagram>
</mxfile>
